<?xml version="1.0" encoding="UTF-8" standalone="no"?>
<!-- Created with Inkscape (http://www.inkscape.org/) -->

<svg
   xmlns:dc="http://purl.org/dc/elements/1.1/"
   xmlns:cc="http://creativecommons.org/ns#"
   xmlns:rdf="http://www.w3.org/1999/02/22-rdf-syntax-ns#"
   xmlns:svg="http://www.w3.org/2000/svg"
   xmlns="http://www.w3.org/2000/svg"
   xmlns:sodipodi="http://sodipodi.sourceforge.net/DTD/sodipodi-0.dtd"
   xmlns:inkscape="http://www.inkscape.org/namespaces/inkscape"
   width="1cm"
   height="1cm"
   viewBox="0 0 10 10"
   version="1.1"
   id="svg8"
   inkscape:version="0.92.2 5c3e80d, 2017-08-06"
   sodipodi:docname="gamr-flat.svg"
   inkscape:export-filename="/home/jtgans/Pictures/By Me/gamr-flat.svg.png"
   inkscape:export-xdpi="598.65002"
   inkscape:export-ydpi="598.65002">
  <defs
     id="defs2" />
  <sodipodi:namedview
     id="base"
     pagecolor="#ffffff"
     bordercolor="#666666"
     borderopacity="1.0"
     inkscape:pageopacity="0.0"
     inkscape:pageshadow="2"
     inkscape:zoom="1.979899"
     inkscape:cx="208.58361"
     inkscape:cy="202.90938"
     inkscape:document-units="mm"
     inkscape:current-layer="layer1"
     showgrid="false"
     showguides="true"
     inkscape:guide-bbox="true"
     inkscape:window-width="1920"
     inkscape:window-height="1136"
     inkscape:window-x="0"
     inkscape:window-y="27"
     inkscape:window-maximized="1"
     units="cm" />
  <metadata
     id="metadata5">
    <rdf:RDF>
      <cc:Work
         rdf:about="">
        <dc:format>image/svg+xml</dc:format>
        <dc:type
           rdf:resource="http://purl.org/dc/dcmitype/StillImage" />
        <dc:title />
      </cc:Work>
    </rdf:RDF>
  </metadata>
  <g
     inkscape:label="Layer 1"
     inkscape:groupmode="layer"
     id="layer1"
     transform="translate(0,-287)">
    <g
       id="g5197"
       transform="matrix(14.029004,0,0,14.029004,-0.32608625,-3850.9049)">
      <path
         inkscape:connector-curvature="0"
         id="rect3699"
         d="m 2.2342536,288.43595 c -0.3879287,0 -0.7002347,0.31231 -0.7002347,0.70024 v 3.4321 c 0,0.38793 0.312306,0.70023 0.7002347,0.70023 h 5.5314754 c 0.3879284,0 0.7002349,-0.3123 0.7002349,-0.70023 v -3.4321 c 0,-0.38793 -0.3123065,-0.70024 -0.7002349,-0.70024 z m 1.8139491,0.59436 h 0.8237372 v 0.008 a 0.75020746,0.75020746 0 0 1 0.01473,-5.1e-4 0.75020746,0.75020746 0 0 1 0.7465108,0.67665 h 0.017059 a 0.21329428,0.21329428 0 0 1 0.1999162,-0.13975 0.21329428,0.21329428 0 0 1 0.2000517,0.13975 h 0.7046214 c 0.040747,0 0.073544,0.0328 0.073544,0.0735 0,0.0408 -0.032797,0.0736 -0.073544,0.0736 h -0.7047292 a 0.21329428,0.21329428 0 0 1 -0.1999434,0.13975 0.21329428,0.21329428 0 0 1 -0.2000244,-0.13975 h -0.017628 a 0.75020746,0.75020746 0 0 1 -0.7458339,0.67665 0.75020746,0.75020746 0 0 1 -0.01473,-7.3e-4 v 0.008 h -0.8237374 v -0.68402 h -0.7796271 c -0.040747,0 -0.073571,-0.0328 -0.073571,-0.0736 0,-0.0407 0.032824,-0.0735 0.073571,-0.0735 h 0.7796271 z m 3.1068111,2.24774 a 0.21290973,0.21290973 0 0 1 0.2129137,0.21292 0.21290973,0.21290973 0 0 1 -0.2129137,0.21291 0.21290973,0.21290973 0 0 1 -0.2129136,-0.21291 0.21290973,0.21290973 0 0 1 0.2129136,-0.21292 z m -4.4496858,10e-4 h 0.3267762 c 0.027431,0 0.049525,0.0221 0.049525,0.0495 v 0.37357 h 0.3783327 c 0.027431,0 0.049525,0.0221 0.049525,0.0495 v 0.3268 c 0,0.0274 -0.022095,0.0495 -0.049525,0.0495 h -0.3783323 v 0.37603 c 0,0.0274 -0.022095,0.0495 -0.049525,0.0495 h -0.3267766 c -0.027431,0 -0.049526,-0.0221 -0.049526,-0.0495 v -0.37603 h -0.3782238 c -0.027431,0 -0.049526,-0.0221 -0.049526,-0.0495 v -0.3268 c 0,-0.0274 0.022095,-0.0495 0.049526,-0.0495 h 0.3782243 v -0.37357 c 0,-0.0274 0.022095,-0.0495 0.049526,-0.0495 z m 4.0238587,0.42244 a 0.21290973,0.21290973 0 0 1 0.2128865,0.21289 0.21290973,0.21290973 0 0 1 -0.2128865,0.21291 0.21290973,0.21290973 0 0 1 -0.2129136,-0.21291 0.21290973,0.21290973 0 0 1 0.2129136,-0.21289 z m 0.8508692,0 a 0.21290973,0.21290973 0 0 1 0.2129136,0.21289 0.21290973,0.21290973 0 0 1 -0.2129136,0.21291 0.21290973,0.21290973 0 0 1 -0.2128866,-0.21291 0.21290973,0.21290973 0 0 1 0.2128866,-0.21289 z m -0.4250421,0.42748 a 0.21290973,0.21290973 0 0 1 0.2129137,0.21291 0.21290973,0.21290973 0 0 1 -0.2129137,0.21292 0.21290973,0.21290973 0 0 1 -0.2129136,-0.21292 0.21290973,0.21290973 0 0 1 0.2129136,-0.21291 z"
         style="stroke-width:0.01386389" />
      <path
         inkscape:connector-curvature="0"
         id="rect3699-3"
         d="m 0.06575112,289.11517 h 1.19262208 c 0.022561,0 0.040723,0.0182 0.040723,0.0407 v 0.1996 c 0,0.0226 -0.018163,0.0407 -0.040723,0.0407 h -1.19262208 c -0.02256077,0 -0.0407234,-0.0182 -0.0407234,-0.0407 v -0.1996 c 0,-0.0226 0.01816263,-0.0407 0.0407234,-0.0407 z"
         style="stroke-width:0.00143336" />
      <path
         inkscape:connector-curvature="0"
         id="rect3699-3-6"
         d="m 0.06575112,289.64737 h 1.19262208 c 0.022561,0 0.040723,0.0182 0.040723,0.0407 v 0.1996 c 0,0.0226 -0.018163,0.0407 -0.040723,0.0407 h -1.19262208 c -0.02256077,0 -0.0407234,-0.0182 -0.0407234,-0.0407 v -0.1996 c 0,-0.0226 0.01816263,-0.0407 0.0407234,-0.0407 z"
         style="stroke-width:0.00143336" />
      <path
         inkscape:connector-curvature="0"
         id="rect3699-3-6-7"
         d="m 0.06575112,290.17953 h 1.19262208 c 0.022561,0 0.040723,0.0182 0.040723,0.0407 v 0.1996 c 0,0.0226 -0.018163,0.0407 -0.040723,0.0407 h -1.19262208 c -0.02256077,0 -0.0407234,-0.0182 -0.0407234,-0.0407 v -0.1996 c 0,-0.0226 0.01816263,-0.0407 0.0407234,-0.0407 z"
         style="stroke-width:0.00143336" />
      <path
         inkscape:connector-curvature="0"
         id="rect3699-3-6-7-5"
         d="m 0.06575112,290.7117 h 1.19262208 c 0.022561,0 0.040723,0.0182 0.040723,0.0407 v 0.1996 c 0,0.0226 -0.018163,0.0407 -0.040723,0.0407 h -1.19262208 c -0.02256077,0 -0.0407234,-0.0182 -0.0407234,-0.0407 v -0.1996 c 0,-0.0226 0.01816263,-0.0407 0.0407234,-0.0407 z"
         style="stroke-width:0.00143336" />
      <path
         inkscape:connector-curvature="0"
         id="rect3699-3-6-7-5-3"
         d="m 0.06575112,291.2439 h 1.19262208 c 0.022561,0 0.040723,0.0182 0.040723,0.0407 v 0.1996 c 0,0.0226 -0.018163,0.0407 -0.040723,0.0407 h -1.19262208 c -0.02256077,0 -0.0407234,-0.0182 -0.0407234,-0.0407 v -0.1996 c 0,-0.0226 0.01816263,-0.0407 0.0407234,-0.0407 z"
         style="stroke-width:0.00143336" />
      <path
         inkscape:connector-curvature="0"
         id="rect3699-3-6-7-5-3-5"
         d="m 0.06575112,291.77606 h 1.19262208 c 0.022561,0 0.040723,0.0182 0.040723,0.0407 v 0.1996 c 0,0.0226 -0.018163,0.0407 -0.040723,0.0407 h -1.19262208 c -0.02256077,0 -0.0407234,-0.0182 -0.0407234,-0.0407 v -0.1996 c 0,-0.0226 0.01816263,-0.0407 0.0407234,-0.0407 z"
         style="stroke-width:0.00143336" />
      <path
         inkscape:connector-curvature="0"
         id="rect3699-3-6-7-5-3-5-6"
         d="m 0.06575112,292.30826 h 1.19262208 c 0.022561,0 0.040723,0.0182 0.040723,0.0407 v 0.1996 c 0,0.0226 -0.018163,0.0407 -0.040723,0.0407 h -1.19262208 c -0.02256077,0 -0.0407234,-0.0182 -0.0407234,-0.0407 v -0.1996 c 0,-0.0226 0.01816263,-0.0407 0.0407234,-0.0407 z"
         style="stroke-width:0.00143336" />
      <g
         transform="matrix(0.05239894,0,0,0.05239894,-0.47483718,285.8065)"
         id="g4828">
        <path
           inkscape:connector-curvature="0"
           id="rect3699-3-9"
           d="m 175.89026,63.144115 h 22.76043 c 0.43055,0 0.77718,0.346623 0.77718,0.77718 v 3.80924 c 0,0.430558 -0.34663,0.77718 -0.77718,0.77718 h -22.76043 c -0.43055,0 -0.77718,-0.346622 -0.77718,-0.77718 v -3.80924 c 0,-0.430557 0.34663,-0.77718 0.77718,-0.77718 z"
           style="stroke-width:0.02735473" />
        <path
           inkscape:connector-curvature="0"
           id="rect3699-3-6-1"
           d="m 175.89026,73.300354 h 22.76043 c 0.43055,0 0.77718,0.346622 0.77718,0.77718 v 3.80924 c 0,0.430558 -0.34663,0.77718 -0.77718,0.77718 h -22.76043 c -0.43055,0 -0.77718,-0.346622 -0.77718,-0.77718 v -3.80924 c 0,-0.430558 0.34663,-0.77718 0.77718,-0.77718 z"
           style="stroke-width:0.02735473" />
        <path
           inkscape:connector-curvature="0"
           id="rect3699-3-6-7-2"
           d="m 175.89026,83.456596 h 22.76043 c 0.43055,0 0.77718,0.346623 0.77718,0.77718 v 3.80924 c 0,0.430558 -0.34663,0.77718 -0.77718,0.77718 h -22.76043 c -0.43055,0 -0.77718,-0.346622 -0.77718,-0.77718 v -3.80924 c 0,-0.430557 0.34663,-0.77718 0.77718,-0.77718 z"
           style="stroke-width:0.02735473" />
        <path
           inkscape:connector-curvature="0"
           id="rect3699-3-6-7-5-7"
           d="m 175.89026,93.612846 h 22.76043 c 0.43055,0 0.77718,0.346623 0.77718,0.77718 v 3.80924 c 0,0.430558 -0.34663,0.77718 -0.77718,0.77718 h -22.76043 c -0.43055,0 -0.77718,-0.346622 -0.77718,-0.77718 v -3.80924 c 0,-0.430557 0.34663,-0.77718 0.77718,-0.77718 z"
           style="stroke-width:0.02735473" />
        <path
           inkscape:connector-curvature="0"
           id="rect3699-3-6-7-5-3-0"
           d="m 175.89026,103.76909 h 22.76043 c 0.43055,0 0.77718,0.34662 0.77718,0.77718 v 3.80924 c 0,0.43056 -0.34663,0.77718 -0.77718,0.77718 h -22.76043 c -0.43055,0 -0.77718,-0.34662 -0.77718,-0.77718 v -3.80924 c 0,-0.43056 0.34663,-0.77718 0.77718,-0.77718 z"
           style="stroke-width:0.02735473" />
        <path
           inkscape:connector-curvature="0"
           id="rect3699-3-6-7-5-3-5-9"
           d="m 175.89026,113.92534 h 22.76043 c 0.43055,0 0.77718,0.34662 0.77718,0.77718 v 3.80924 c 0,0.43056 -0.34663,0.77718 -0.77718,0.77718 h -22.76043 c -0.43055,0 -0.77718,-0.34662 -0.77718,-0.77718 v -3.80924 c 0,-0.43056 0.34663,-0.77718 0.77718,-0.77718 z"
           style="stroke-width:0.02735473" />
        <path
           inkscape:connector-curvature="0"
           id="rect3699-3-6-7-5-3-5-6-3"
           d="m 175.89026,124.08157 h 22.76043 c 0.43055,0 0.77718,0.34663 0.77718,0.77718 v 3.80924 c 0,0.43056 -0.34663,0.77718 -0.77718,0.77718 h -22.76043 c -0.43055,0 -0.77718,-0.34662 -0.77718,-0.77718 v -3.80924 c 0,-0.43055 0.34663,-0.77718 0.77718,-0.77718 z"
           style="stroke-width:0.02735473" />
      </g>
      <g
         id="text4853"
         style="font-style:normal;font-variant:normal;font-weight:bold;font-stretch:normal;font-size:2.66186619px;line-height:1.25;font-family:'Adobe Courier';-inkscape-font-specification:'Adobe Courier Bold';letter-spacing:0px;word-spacing:0px;fill:#000000;fill-opacity:1;stroke:none;stroke-width:0.01386389"
         aria-label="GAMR">
        <path
           inkscape:connector-curvature="0"
           id="path5167"
           style="font-style:normal;font-variant:normal;font-weight:bold;font-stretch:normal;font-size:2.66186619px;font-family:'Adobe Courier';-inkscape-font-specification:'Adobe Courier Bold';stroke-width:0.01386389"
           d="m 2.4772058,295.38207 q -0.1871625,0.091 -0.3886221,0.13647 -0.2014596,0.0455 -0.4159165,0.0455 -0.4848028,0 -0.768146,-0.27035 -0.28334318,-0.27164 -0.28334318,-0.73565 0,-0.46921 0.28854213,-0.73825 0.28854215,-0.26905 0.79024155,-0.26905 0.1936611,0 0.3704257,0.0364 0.1780643,0.0364 0.3353327,0.10787 v 0.40162 q -0.1624674,-0.0923 -0.3236351,-0.13777 -0.1598679,-0.0455 -0.3210356,-0.0455 -0.29894,0 -0.4614074,0.16767 -0.1611677,0.16636 -0.1611677,0.477 0,0.30804 0.1559687,0.47571 0.1559687,0.16766 0.4432111,0.16766 0.077984,0 0.1442711,-0.009 0.067586,-0.0104 0.1208757,-0.0312 v -0.37692 h -0.3054387 v -0.33534 h 0.7798436 z" />
        <path
           inkscape:connector-curvature="0"
           id="path5169"
           style="font-style:normal;font-variant:normal;font-weight:bold;font-stretch:normal;font-size:2.66186619px;font-family:'Adobe Courier';-inkscape-font-specification:'Adobe Courier Bold';stroke-width:0.01386389"
           d="m 4.0940815,295.17281 h -0.7824431 l -0.1234752,0.35353 h -0.5029992 l 0.7187559,-1.94051 h 0.5965804 l 0.7187558,1.94051 h -0.5029991 z m -0.6576681,-0.36003 h 0.5315934 l -0.2651469,-0.77205 z" />
        <path
           inkscape:connector-curvature="0"
           id="path5171"
           style="font-style:normal;font-variant:normal;font-weight:bold;font-stretch:normal;font-size:2.66186619px;font-family:'Adobe Courier';-inkscape-font-specification:'Adobe Courier Bold';stroke-width:0.01386389"
           d="m 4.9753048,293.58583 h 0.6368722 l 0.4419114,1.03849 0.4445109,-1.03849 h 0.6355725 v 1.94051 h -0.4731051 v -1.41932 l -0.4471103,1.04629 h -0.3171365 l -0.4471103,-1.04629 v 1.41932 h -0.4744048 z" />
        <path
           inkscape:connector-curvature="0"
           id="path5173"
           style="font-style:normal;font-variant:normal;font-weight:bold;font-stretch:normal;font-size:2.66186619px;font-family:'Adobe Courier';-inkscape-font-specification:'Adobe Courier Bold';stroke-width:0.01386389"
           d="m 8.3377305,294.44625 q 0.1572684,0 0.2248549,-0.0585 0.068886,-0.0585 0.068886,-0.19236 0,-0.13257 -0.068886,-0.18976 -0.067586,-0.0572 -0.2248549,-0.0572 h -0.2105578 v 0.4978 z m -0.2105578,0.34573 v 0.73436 h -0.5003997 v -1.94051 h 0.7642468 q 0.3834231,0 0.5614874,0.12867 0.179364,0.12867 0.179364,0.40682 0,0.19236 -0.093581,0.31584 -0.092282,0.12347 -0.279444,0.18196 0.1026794,0.0234 0.1832632,0.10658 0.081884,0.0819 0.1650669,0.24955 l 0.2716456,0.55109 h -0.5328934 l -0.2365525,-0.48221 q -0.071486,-0.14557 -0.1455708,-0.19886 -0.072785,-0.0533 -0.1949609,-0.0533 z" />
      </g>
    </g>
  </g>
</svg>
