  0
SECTION
  2
HEADER
  9
$ACADVER
  1
AC1014
  9
$HANDSEED
  5
FFFF
  9
$MEASUREMENT
 70
     1
  0
ENDSEC
  0
SECTION
  2
TABLES
  0
TABLE
  2
VPORT
  5
8
330
0
100
AcDbSymbolTable
 70
     4
  0
VPORT
  5
2E
330
8
100
AcDbSymbolTableRecord
100
AcDbViewportTableRecord
  2
*ACTIVE
 70
     0
 10
0.0
 20
0.0
 11
1.0
 21
1.0
 12
210.0
 22
148.5
 13
0.0
 23
0.0
 14
10.0
 24
10.0
 15
10.0
 25
10.0
 16
0.0
 26
0.0
 36
1.0
 17
0.0
 27
0.0
 37
0.0
 40
341.0
 41
1.24
 42
50.0
 43
0.0
 44
0.0
 50
0.0
 51
0.0
 71
     0
 72
   100
 73
     1
 74
     3
 75
     0
 76
     0
 77
     0
 78
     0
  0
ENDTAB
  0
TABLE
  2
LTYPE
  5
5
330
0
100
AcDbSymbolTable
 70
     1
  0
LTYPE
  5
14
330
5
100
AcDbSymbolTableRecord
100
AcDbLinetypeTableRecord
  2
BYBLOCK
 70
     0
  3

 72
    65
 73
     0
 40
0.0
  0
LTYPE
  5
15
330
5
100
AcDbSymbolTableRecord
100
AcDbLinetypeTableRecord
  2
BYLAYER
 70
     0
  3

 72
    65
 73
     0
 40
0.0
  0
LTYPE
  5
16
330
5
100
AcDbSymbolTableRecord
100
AcDbLinetypeTableRecord
  2
CONTINUOUS
 70
     0
  3
Solid line
 72
    65
 73
     0
 40
0.0
  0
ENDTAB
  0
TABLE
  2
LAYER
  5
2
100
AcDbSymbolTable
 70
2
  0
LAYER
  5
50
100
AcDbSymbolTableRecord
100
AcDbLayerTableRecord
  2
0
 70
0
  6
CONTINUOUS
  0
LAYER
  5
51
100
AcDbSymbolTableRecord
100
AcDbLayerTableRecord
  2
Layer_1
 70
0
  6
CONTINUOUS
  0
ENDTAB
  0
TABLE
  2
STYLE
  5
3
330
0
100
AcDbSymbolTable
 70
     1
  0
STYLE
  5
11
330
3
100
AcDbSymbolTableRecord
100
AcDbTextStyleTableRecord
  2
STANDARD
 70
     0
 40
0.0
 41
1.0
 50
0.0
 71
     0
 42
2.5
  3
txt
  4

  0
ENDTAB
  0
TABLE
  2
VIEW
  5
6
330
0
100
AcDbSymbolTable
 70
     0
  0
ENDTAB
  0
TABLE
  2
UCS
  5
7
330
0
100
AcDbSymbolTable
 70
     0
  0
ENDTAB
  0
TABLE
  2
APPID
  5
9
330
0
100
AcDbSymbolTable
 70
     2
  0
APPID
  5
12
330
9
100
AcDbSymbolTableRecord
100
AcDbRegAppTableRecord
  2
ACAD
 70
     0
  0
ENDTAB
  0
TABLE
  2
DIMSTYLE
  5
A
330
0
100
AcDbSymbolTable
 70
     1
  0
DIMSTYLE
105
27
330
A
100
AcDbSymbolTableRecord
100
AcDbDimStyleTableRecord
  2
ISO-25
 70
     0
  3

  4

  5

  6

  7

 40
1.0
 41
2.5
 42
0.625
 43
3.75
 44
1.25
 45
0.0
 46
0.0
 47
0.0
 48
0.0
140
2.5
141
2.5
142
0.0
143
0.03937007874016
144
1.0
145
0.0
146
1.0
147
0.625
 71
     0
 72
     0
 73
     0
 74
     0
 75
     0
 76
     0
 77
     1
 78
     8
170
     0
171
     3
172
     1
173
     0
174
     0
175
     0
176
     0
177
     0
178
     0
270
     2
271
     2
272
     2
273
     2
274
     3
340
11
275
     0
280
     0
281
     0
282
     0
283
     0
284
     8
285
     0
286
     0
287
     3
288
     0
  0
ENDTAB
  0
TABLE
  2
BLOCK_RECORD
  5
1
330
0
100
AcDbSymbolTable
 70
     1
  0
BLOCK_RECORD
  5
1F
330
1
100
AcDbSymbolTableRecord
100
AcDbBlockTableRecord
  2
*MODEL_SPACE
  0
BLOCK_RECORD
  5
1B
330
1
100
AcDbSymbolTableRecord
100
AcDbBlockTableRecord
  2
*PAPER_SPACE
  0
ENDTAB
  0
ENDSEC
  0
SECTION
  2
BLOCKS
  0
BLOCK
  5
20
330
1F
100
AcDbEntity
  8
0
100
AcDbBlockBegin
  2
*MODEL_SPACE
 70
     0
 10
0.0
 20
0.0
 30
0.0
  3
*MODEL_SPACE
  1

  0
ENDBLK
  5
21
330
1F
100
AcDbEntity
  8
0
100
AcDbBlockEnd
  0
BLOCK
  5
1C
330
1B
100
AcDbEntity
 67
     1
  8
0
100
AcDbBlockBegin
  2
*PAPER_SPACE
  1

  0
ENDBLK
  5
1D
330
1B
100
AcDbEntity
 67
     1
  8
0
100
AcDbBlockEnd
  0
ENDSEC
  0
SECTION
  2
ENTITIES
  0
LWPOLYLINE
  5
100
100
AcDbEntity
  8
Layer_1
 62
7
100
AcDbPolyline
 90
42
 70
1
 10
3.124352
 20
11.435800
 30
0.0
 10
2.741263
 20
11.358800
 30
0.0
 10
2.429087
 20
11.148660
 30
0.0
 10
2.218954
 20
10.836480
 30
0.0
 10
2.141992
 20
10.453390
 30
0.0
 10
2.141992
 20
9.490420
 30
0.0
 10
2.141992
 20
8.527370
 30
0.0
 10
2.141992
 20
7.564420
 30
0.0
 10
2.141992
 20
6.601510
 30
0.0
 10
2.141992
 20
5.638500
 30
0.0
 10
2.218954
 20
5.255410
 30
0.0
 10
2.429087
 20
4.943240
 30
0.0
 10
2.741263
 20
4.733110
 30
0.0
 10
3.124352
 20
4.656110
 30
0.0
 10
4.094419
 20
4.656110
 30
0.0
 10
5.064375
 20
4.656110
 30
0.0
 10
6.034381
 20
4.656110
 30
0.0
 10
7.004331
 20
4.656110
 30
0.0
 10
7.974297
 20
4.656110
 30
0.0
 10
8.944391
 20
4.656110
 30
0.0
 10
9.914443
 20
4.656110
 30
0.0
 10
10.884461
 20
4.656110
 30
0.0
 10
11.267550
 20
4.733110
 30
0.0
 10
11.579725
 20
4.943240
 30
0.0
 10
11.789859
 20
5.255410
 30
0.0
 10
11.866819
 20
5.638500
 30
0.0
 10
11.866819
 20
6.601470
 30
0.0
 10
11.866819
 20
7.564520
 30
0.0
 10
11.866819
 20
8.527470
 30
0.0
 10
11.866819
 20
9.490380
 30
0.0
 10
11.866819
 20
10.453390
 30
0.0
 10
11.789859
 20
10.836480
 30
0.0
 10
11.579725
 20
11.148660
 30
0.0
 10
11.267550
 20
11.358800
 30
0.0
 10
10.884461
 20
11.435800
 30
0.0
 10
9.914394
 20
11.435800
 30
0.0
 10
8.944438
 20
11.435800
 30
0.0
 10
7.974432
 20
11.435800
 30
0.0
 10
7.004482
 20
11.435800
 30
0.0
 10
6.034516
 20
11.435800
 30
0.0
 10
5.064422
 20
11.435800
 30
0.0
 10
4.094369
 20
11.435800
 30
0.0
  0
LWPOLYLINE
  5
101
100
AcDbEntity
  8
Layer_1
 62
7
100
AcDbPolyline
 90
30
 70
1
 10
5.669142
 20
10.601970
 30
0.0
 10
6.246952
 20
10.601970
 30
0.0
 10
6.824763
 20
10.601970
 30
0.0
 10
6.824763
 20
10.590770
 30
0.0
 10
6.845428
 20
10.591470
 30
0.0
 10
7.552136
 20
10.318800
 30
0.0
 10
7.892708
 20
9.642200
 30
0.0
 10
7.916640
 20
9.642200
 30
0.0
 10
8.197103
 20
9.838250
 30
0.0
 10
8.477755
 20
9.642200
 30
0.0
 10
9.466269
 20
9.642200
 30
0.0
 10
9.569444
 20
9.539080
 30
0.0
 10
9.466269
 20
9.435830
 30
0.0
 10
8.477604
 20
9.435830
 30
0.0
 10
8.197103
 20
9.239770
 30
0.0
 10
7.916489
 20
9.435830
 30
0.0
 10
7.891759
 20
9.435830
 30
0.0
 10
7.551539
 20
8.759540
 30
0.0
 10
6.845428
 20
8.486560
 30
0.0
 10
6.824763
 20
8.487560
 30
0.0
 10
6.824763
 20
8.476360
 30
0.0
 10
6.246953
 20
8.476360
 30
0.0
 10
5.669142
 20
8.476360
 30
0.0
 10
5.669142
 20
9.435980
 30
0.0
 10
5.122272
 20
9.435980
 30
0.0
 10
4.575403
 20
9.435980
 30
0.0
 10
4.472190
 20
9.539230
 30
0.0
 10
4.575403
 20
9.642340
 30
0.0
 10
5.122272
 20
9.642340
 30
0.0
 10
5.669142
 20
9.642340
 30
0.0
  0
LWPOLYLINE
  5
102
100
AcDbEntity
  8
Layer_1
 62
7
100
AcDbPolyline
 90
9
 70
1
 10
10.027688
 20
7.448620
 30
0.0
 10
10.238903
 20
7.361120
 30
0.0
 10
10.326383
 20
7.149900
 30
0.0
 10
10.238893
 20
6.938690
 30
0.0
 10
10.027682
 20
6.851190
 30
0.0
 10
9.816472
 20
6.938690
 30
0.0
 10
9.728986
 20
7.149900
 30
0.0
 10
9.816468
 20
7.361120
 30
0.0
 10
10.027683
 20
7.448620
 30
0.0
  0
LWPOLYLINE
  5
103
100
AcDbEntity
  8
Layer_1
 62
7
100
AcDbPolyline
 90
21
 70
1
 10
3.785222
 20
7.447220
 30
0.0
 10
4.243657
 20
7.447220
 30
0.0
 10
4.313136
 20
7.377720
 30
0.0
 10
4.313136
 20
6.853640
 30
0.0
 10
4.843899
 20
6.853640
 30
0.0
 10
4.913378
 20
6.784240
 30
0.0
 10
4.913378
 20
6.325770
 30
0.0
 10
4.843899
 20
6.256370
 30
0.0
 10
4.313136
 20
6.256370
 30
0.0
 10
4.313136
 20
5.728830
 30
0.0
 10
4.243657
 20
5.659430
 30
0.0
 10
3.785222
 20
5.659430
 30
0.0
 10
3.715742
 20
5.728830
 30
0.0
 10
3.715742
 20
6.256370
 30
0.0
 10
3.185132
 20
6.256370
 30
0.0
 10
3.115652
 20
6.325770
 30
0.0
 10
3.115652
 20
6.784240
 30
0.0
 10
3.185132
 20
6.853640
 30
0.0
 10
3.715743
 20
6.853640
 30
0.0
 10
3.715743
 20
7.377720
 30
0.0
 10
3.785222
 20
7.447220
 30
0.0
  0
LWPOLYLINE
  5
104
100
AcDbEntity
  8
Layer_1
 62
7
100
AcDbPolyline
 90
9
 70
1
 10
9.430295
 20
6.854580
 30
0.0
 10
9.641471
 20
6.767080
 30
0.0
 10
9.728954
 20
6.555900
 30
0.0
 10
9.641481
 20
6.344710
 30
0.0
 10
9.430295
 20
6.257210
 30
0.0
 10
9.219085
 20
6.344710
 30
0.0
 10
9.131599
 20
6.555920
 30
0.0
 10
9.219095
 20
6.767110
 30
0.0
 10
9.430295
 20
6.854610
 30
0.0
  0
LWPOLYLINE
  5
105
100
AcDbEntity
  8
Layer_1
 62
7
100
AcDbPolyline
 90
9
 70
1
 10
10.623980
 20
6.854580
 30
0.0
 10
10.835180
 20
6.767080
 30
0.0
 10
10.922680
 20
6.555890
 30
0.0
 10
10.835190
 20
6.344680
 30
0.0
 10
10.623980
 20
6.257180
 30
0.0
 10
10.412794
 20
6.344680
 30
0.0
 10
10.325324
 20
6.555870
 30
0.0
 10
10.412804
 20
6.767050
 30
0.0
 10
10.623980
 20
6.854550
 30
0.0
  0
LWPOLYLINE
  5
106
100
AcDbEntity
  8
Layer_1
 62
7
100
AcDbPolyline
 90
9
 70
1
 10
10.027688
 20
6.254860
 30
0.0
 10
10.238898
 20
6.167360
 30
0.0
 10
10.326388
 20
5.956150
 30
0.0
 10
10.238908
 20
5.744930
 30
0.0
 10
10.027692
 20
5.657430
 30
0.0
 10
9.816477
 20
5.744930
 30
0.0
 10
9.728996
 20
5.956150
 30
0.0
 10
9.816483
 20
6.167360
 30
0.0
 10
10.027693
 20
6.254860
 30
0.0
  0
LWPOLYLINE
  5
107
100
AcDbEntity
  8
Layer_1
 62
7
100
AcDbPolyline
 90
11
 70
1
 10
0.082159
 20
10.482920
 30
0.0
 10
0.918724
 20
10.482920
 30
0.0
 10
1.755289
 20
10.482920
 30
0.0
 10
1.812419
 20
10.425820
 30
0.0
 10
1.812419
 20
10.145800
 30
0.0
 10
1.755289
 20
10.088700
 30
0.0
 10
0.918724
 20
10.088700
 30
0.0
 10
0.082159
 20
10.088700
 30
0.0
 10
0.025028
 20
10.145800
 30
0.0
 10
0.025028
 20
10.425820
 30
0.0
 10
0.082159
 20
10.482920
 30
0.0
  0
LWPOLYLINE
  5
108
100
AcDbEntity
  8
Layer_1
 62
7
100
AcDbPolyline
 90
11
 70
1
 10
0.082159
 20
9.736300
 30
0.0
 10
0.918724
 20
9.736300
 30
0.0
 10
1.755289
 20
9.736300
 30
0.0
 10
1.812419
 20
9.679200
 30
0.0
 10
1.812419
 20
9.399180
 30
0.0
 10
1.755289
 20
9.342080
 30
0.0
 10
0.918724
 20
9.342080
 30
0.0
 10
0.082159
 20
9.342080
 30
0.0
 10
0.025028
 20
9.399180
 30
0.0
 10
0.025028
 20
9.679200
 30
0.0
 10
0.082159
 20
9.736300
 30
0.0
  0
LWPOLYLINE
  5
109
100
AcDbEntity
  8
Layer_1
 62
7
100
AcDbPolyline
 90
11
 70
1
 10
0.082159
 20
8.989730
 30
0.0
 10
0.918724
 20
8.989730
 30
0.0
 10
1.755289
 20
8.989730
 30
0.0
 10
1.812419
 20
8.932630
 30
0.0
 10
1.812419
 20
8.652610
 30
0.0
 10
1.755289
 20
8.595510
 30
0.0
 10
0.918724
 20
8.595510
 30
0.0
 10
0.082159
 20
8.595510
 30
0.0
 10
0.025028
 20
8.652610
 30
0.0
 10
0.025028
 20
8.932630
 30
0.0
 10
0.082159
 20
8.989730
 30
0.0
  0
LWPOLYLINE
  5
10a
100
AcDbEntity
  8
Layer_1
 62
7
100
AcDbPolyline
 90
11
 70
1
 10
0.082159
 20
8.243150
 30
0.0
 10
0.918724
 20
8.243150
 30
0.0
 10
1.755289
 20
8.243150
 30
0.0
 10
1.812419
 20
8.186050
 30
0.0
 10
1.812419
 20
7.906030
 30
0.0
 10
1.755289
 20
7.848930
 30
0.0
 10
0.918724
 20
7.848930
 30
0.0
 10
0.082159
 20
7.848930
 30
0.0
 10
0.025028
 20
7.906030
 30
0.0
 10
0.025028
 20
8.186050
 30
0.0
 10
0.082159
 20
8.243150
 30
0.0
  0
LWPOLYLINE
  5
10b
100
AcDbEntity
  8
Layer_1
 62
7
100
AcDbPolyline
 90
11
 70
1
 10
0.082159
 20
7.496530
 30
0.0
 10
0.918724
 20
7.496530
 30
0.0
 10
1.755289
 20
7.496530
 30
0.0
 10
1.812419
 20
7.439430
 30
0.0
 10
1.812419
 20
7.159410
 30
0.0
 10
1.755289
 20
7.102310
 30
0.0
 10
0.918724
 20
7.102310
 30
0.0
 10
0.082159
 20
7.102310
 30
0.0
 10
0.025028
 20
7.159410
 30
0.0
 10
0.025028
 20
7.439430
 30
0.0
 10
0.082159
 20
7.496530
 30
0.0
  0
LWPOLYLINE
  5
10c
100
AcDbEntity
  8
Layer_1
 62
7
100
AcDbPolyline
 90
11
 70
1
 10
0.082159
 20
6.749960
 30
0.0
 10
0.918724
 20
6.749960
 30
0.0
 10
1.755289
 20
6.749960
 30
0.0
 10
1.812419
 20
6.692860
 30
0.0
 10
1.812419
 20
6.412840
 30
0.0
 10
1.755289
 20
6.355740
 30
0.0
 10
0.918724
 20
6.355740
 30
0.0
 10
0.082159
 20
6.355740
 30
0.0
 10
0.025028
 20
6.412840
 30
0.0
 10
0.025028
 20
6.692860
 30
0.0
 10
0.082159
 20
6.749960
 30
0.0
  0
LWPOLYLINE
  5
10d
100
AcDbEntity
  8
Layer_1
 62
7
100
AcDbPolyline
 90
11
 70
1
 10
0.082159
 20
6.003330
 30
0.0
 10
0.918724
 20
6.003330
 30
0.0
 10
1.755289
 20
6.003330
 30
0.0
 10
1.812419
 20
5.946230
 30
0.0
 10
1.812419
 20
5.666210
 30
0.0
 10
1.755289
 20
5.609110
 30
0.0
 10
0.918724
 20
5.609110
 30
0.0
 10
0.082159
 20
5.609110
 30
0.0
 10
0.025028
 20
5.666210
 30
0.0
 10
0.025028
 20
5.946230
 30
0.0
 10
0.082159
 20
6.003330
 30
0.0
  0
LWPOLYLINE
  5
10e
100
AcDbEntity
  8
Layer_1
 62
7
100
AcDbPolyline
 90
11
 70
1
 10
12.253547
 20
10.482900
 30
0.0
 10
13.090112
 20
10.482900
 30
0.0
 10
13.926677
 20
10.482900
 30
0.0
 10
13.983807
 20
10.425800
 30
0.0
 10
13.983807
 20
10.145780
 30
0.0
 10
13.926677
 20
10.088680
 30
0.0
 10
13.090112
 20
10.088680
 30
0.0
 10
12.253547
 20
10.088680
 30
0.0
 10
12.196417
 20
10.145780
 30
0.0
 10
12.196417
 20
10.425800
 30
0.0
 10
12.253547
 20
10.482900
 30
0.0
  0
LWPOLYLINE
  5
10f
100
AcDbEntity
  8
Layer_1
 62
7
100
AcDbPolyline
 90
11
 70
1
 10
12.253547
 20
9.736310
 30
0.0
 10
13.090112
 20
9.736310
 30
0.0
 10
13.926677
 20
9.736310
 30
0.0
 10
13.983807
 20
9.679210
 30
0.0
 10
13.983807
 20
9.399190
 30
0.0
 10
13.926677
 20
9.342090
 30
0.0
 10
13.090112
 20
9.342090
 30
0.0
 10
12.253547
 20
9.342090
 30
0.0
 10
12.196417
 20
9.399190
 30
0.0
 10
12.196417
 20
9.679210
 30
0.0
 10
12.253547
 20
9.736310
 30
0.0
  0
LWPOLYLINE
  5
110
100
AcDbEntity
  8
Layer_1
 62
7
100
AcDbPolyline
 90
11
 70
1
 10
12.253547
 20
8.989720
 30
0.0
 10
13.090112
 20
8.989720
 30
0.0
 10
13.926677
 20
8.989720
 30
0.0
 10
13.983807
 20
8.932620
 30
0.0
 10
13.983807
 20
8.652600
 30
0.0
 10
13.926677
 20
8.595500
 30
0.0
 10
13.090112
 20
8.595500
 30
0.0
 10
12.253547
 20
8.595500
 30
0.0
 10
12.196417
 20
8.652600
 30
0.0
 10
12.196417
 20
8.932620
 30
0.0
 10
12.253547
 20
8.989720
 30
0.0
  0
LWPOLYLINE
  5
111
100
AcDbEntity
  8
Layer_1
 62
7
100
AcDbPolyline
 90
11
 70
1
 10
12.253547
 20
8.243130
 30
0.0
 10
13.090112
 20
8.243130
 30
0.0
 10
13.926677
 20
8.243130
 30
0.0
 10
13.983807
 20
8.186030
 30
0.0
 10
13.983807
 20
7.906010
 30
0.0
 10
13.926677
 20
7.848910
 30
0.0
 10
13.090112
 20
7.848910
 30
0.0
 10
12.253547
 20
7.848910
 30
0.0
 10
12.196417
 20
7.906010
 30
0.0
 10
12.196417
 20
8.186030
 30
0.0
 10
12.253547
 20
8.243130
 30
0.0
  0
LWPOLYLINE
  5
112
100
AcDbEntity
  8
Layer_1
 62
7
100
AcDbPolyline
 90
11
 70
1
 10
12.253547
 20
7.496540
 30
0.0
 10
13.090112
 20
7.496540
 30
0.0
 10
13.926677
 20
7.496540
 30
0.0
 10
13.983807
 20
7.439440
 30
0.0
 10
13.983807
 20
7.159420
 30
0.0
 10
13.926677
 20
7.102320
 30
0.0
 10
13.090112
 20
7.102320
 30
0.0
 10
12.253547
 20
7.102320
 30
0.0
 10
12.196417
 20
7.159420
 30
0.0
 10
12.196417
 20
7.439440
 30
0.0
 10
12.253547
 20
7.496540
 30
0.0
  0
LWPOLYLINE
  5
113
100
AcDbEntity
  8
Layer_1
 62
7
100
AcDbPolyline
 90
11
 70
1
 10
12.253547
 20
6.749950
 30
0.0
 10
13.090112
 20
6.749950
 30
0.0
 10
13.926677
 20
6.749950
 30
0.0
 10
13.983807
 20
6.692850
 30
0.0
 10
13.983807
 20
6.412830
 30
0.0
 10
13.926677
 20
6.355730
 30
0.0
 10
13.090112
 20
6.355730
 30
0.0
 10
12.253547
 20
6.355730
 30
0.0
 10
12.196417
 20
6.412830
 30
0.0
 10
12.196417
 20
6.692850
 30
0.0
 10
12.253547
 20
6.749950
 30
0.0
  0
LWPOLYLINE
  5
114
100
AcDbEntity
  8
Layer_1
 62
7
100
AcDbPolyline
 90
11
 70
1
 10
12.253547
 20
6.003360
 30
0.0
 10
13.090112
 20
6.003360
 30
0.0
 10
13.926677
 20
6.003360
 30
0.0
 10
13.983807
 20
5.946260
 30
0.0
 10
13.983807
 20
5.666240
 30
0.0
 10
13.926677
 20
5.609140
 30
0.0
 10
13.090112
 20
5.609140
 30
0.0
 10
12.253547
 20
5.609140
 30
0.0
 10
12.196417
 20
5.666240
 30
0.0
 10
12.196417
 20
5.946260
 30
0.0
 10
12.253547
 20
6.003360
 30
0.0
  0
LWPOLYLINE
  5
115
100
AcDbEntity
  8
Layer_1
 62
7
100
AcDbPolyline
 90
28
 70
1
 10
3.465189
 20
1.691090
 30
0.0
 10
2.919991
 20
1.499630
 30
0.0
 10
2.336502
 20
1.435830
 30
0.0
 10
1.759110
 20
1.519730
 30
0.0
 10
1.258870
 20
1.815060
 30
0.0
 10
0.951598
 20
2.288080
 30
0.0
 10
0.861367
 20
2.847110
 30
0.0
 10
0.952878
 20
3.409580
 30
0.0
 10
1.266163
 20
3.882800
 30
0.0
 10
1.782721
 20
4.177960
 30
0.0
 10
2.374793
 20
4.260260
 30
0.0
 10
2.894464
 20
4.209160
 30
0.0
 10
3.364902
 20
4.057830
 30
0.0
 10
3.364902
 20
3.494400
 30
0.0
 10
2.910874
 20
3.687680
 30
0.0
 10
2.460493
 20
3.751480
 30
0.0
 10
1.813185
 20
3.516250
 30
0.0
 10
1.587082
 20
2.847070
 30
0.0
 10
1.805891
 20
2.179700
 30
0.0
 10
2.427672
 20
1.944490
 30
0.0
 10
2.630070
 20
1.957090
 30
0.0
 10
2.799647
 20
2.000890
 30
0.0
 10
2.799647
 20
2.529680
 30
0.0
 10
2.371147
 20
2.529680
 30
0.0
 10
2.371147
 20
3.000120
 30
0.0
 10
2.918168
 20
3.000120
 30
0.0
 10
3.465189
 20
3.000120
 30
0.0
 10
3.465189
 20
2.345580
 30
0.0
  0
LWPOLYLINE
  5
116
100
AcDbEntity
  8
Layer_1
 62
7
100
AcDbPolyline
 90
13
 70
1
 10
5.733505
 20
1.984660
 30
0.0
 10
5.184660
 20
1.984660
 30
0.0
 10
4.635815
 20
1.984660
 30
0.0
 10
4.462592
 20
1.488690
 30
0.0
 10
3.756934
 20
1.488690
 30
0.0
 10
4.093048
 20
2.396140
 30
0.0
 10
4.429160
 20
3.303580
 30
0.0
 10
4.765277
 20
4.211030
 30
0.0
 10
5.602220
 20
4.211030
 30
0.0
 10
5.938334
 20
3.303580
 30
0.0
 10
6.274446
 20
2.396140
 30
0.0
 10
6.610563
 20
1.488690
 30
0.0
 10
5.904905
 20
1.488690
 30
0.0
  0
LWPOLYLINE
  5
117
100
AcDbEntity
  8
Layer_1
 62
7
100
AcDbPolyline
 90
5
 70
1
 10
4.810862
 20
2.489740
 30
0.0
 10
5.556635
 20
2.489740
 30
0.0
 10
5.370647
 20
3.031300
 30
0.0
 10
5.184660
 20
3.572850
 30
0.0
 10
4.997761
 20
3.031300
 30
0.0
  0
LWPOLYLINE
  5
118
100
AcDbEntity
  8
Layer_1
 62
7
100
AcDbPolyline
 90
23
 70
1
 10
6.969774
 20
4.211030
 30
0.0
 10
7.863242
 20
4.211030
 30
0.0
 10
8.173221
 20
3.482580
 30
0.0
 10
8.483199
 20
2.754130
 30
0.0
 10
8.795002
 20
3.482580
 30
0.0
 10
9.106804
 20
4.211030
 30
0.0
 10
9.998449
 20
4.211030
 30
0.0
 10
9.998449
 20
3.303580
 30
0.0
 10
9.998449
 20
2.396140
 30
0.0
 10
9.998449
 20
1.488690
 30
0.0
 10
9.334730
 20
1.488690
 30
0.0
 10
9.334730
 20
2.484270
 30
0.0
 10
9.334730
 20
3.479850
 30
0.0
 10
9.021104
 20
2.745930
 30
0.0
 10
8.707478
 20
2.012010
 30
0.0
 10
8.262567
 20
2.012010
 30
0.0
 10
7.948942
 20
2.745930
 30
0.0
 10
7.635316
 20
3.479850
 30
0.0
 10
7.635316
 20
2.484270
 30
0.0
 10
7.635316
 20
1.488690
 30
0.0
 10
6.969774
 20
1.488690
 30
0.0
 10
6.969774
 20
2.396140
 30
0.0
 10
6.969774
 20
3.303580
 30
0.0
  0
LWPOLYLINE
  5
119
100
AcDbEntity
  8
Layer_1
 62
7
100
AcDbPolyline
 90
7
 70
1
 10
11.686922
 20
3.003950
 30
0.0
 10
12.002371
 20
3.086050
 30
0.0
 10
12.099011
 20
3.355910
 30
0.0
 10
12.002371
 20
3.622120
 30
0.0
 10
11.686922
 20
3.702320
 30
0.0
 10
11.391530
 20
3.702320
 30
0.0
 10
11.391530
 20
3.003960
 30
0.0
  0
LWPOLYLINE
  5
11a
100
AcDbEntity
  8
Layer_1
 62
7
100
AcDbPolyline
 90
21
 70
1
 10
11.391530
 20
2.518920
 30
0.0
 10
11.391530
 20
2.003810
 30
0.0
 10
11.391530
 20
1.488690
 30
0.0
 10
10.689519
 20
1.488690
 30
0.0
 10
10.689519
 20
2.396140
 30
0.0
 10
10.689519
 20
3.303580
 30
0.0
 10
10.689519
 20
4.211030
 30
0.0
 10
11.225600
 20
4.211030
 30
0.0
 10
11.761681
 20
4.211030
 30
0.0
 10
12.549392
 20
4.030520
 30
0.0
 10
12.738115
 20
3.797580
 30
0.0
 10
12.801025
 20
3.459790
 30
0.0
 10
12.669740
 20
3.016700
 30
0.0
 10
12.277708
 20
2.761430
 30
0.0
 10
12.534808
 20
2.611910
 30
0.0
 10
12.766381
 20
2.261810
 30
0.0
 10
13.147472
 20
1.488690
 30
0.0
 10
12.399876
 20
1.488690
 30
0.0
 10
12.068016
 20
2.165180
 30
0.0
 10
11.863795
 20
2.444160
 30
0.0
 10
11.590284
 20
2.518960
 30
0.0
  0
ENDSEC
  0
SECTION
  2
OBJECTS
  0
DICTIONARY
  5
C
330
0
100
AcDbDictionary
  3
ACAD_GROUP
350
D
  3
ACAD_MLINESTYLE
350
17
  0
DICTIONARY
  5
D
330
C
100
AcDbDictionary
  0
DICTIONARY
  5
1A
330
C
100
AcDbDictionary
  0
DICTIONARY
  5
17
330
C
100
AcDbDictionary
  3
STANDARD
350
18
  0
DICTIONARY
  5
19
330
C
100
AcDbDictionary
  0
ENDSEC
  0
EOF
