<?xml version="1.0" encoding="UTF-8" standalone="no"?>
<!-- Created with Inkscape (http://www.inkscape.org/) -->

<svg
   xmlns:dc="http://purl.org/dc/elements/1.1/"
   xmlns:cc="http://creativecommons.org/ns#"
   xmlns:rdf="http://www.w3.org/1999/02/22-rdf-syntax-ns#"
   xmlns:svg="http://www.w3.org/2000/svg"
   xmlns="http://www.w3.org/2000/svg"
   xmlns:sodipodi="http://sodipodi.sourceforge.net/DTD/sodipodi-0.dtd"
   xmlns:inkscape="http://www.inkscape.org/namespaces/inkscape"
   width="189.88826mm"
   height="136.03482mm"
   viewBox="0 0 189.88826 136.03482"
   version="1.1"
   id="svg8"
   inkscape:version="0.92.2 5c3e80d, 2017-08-06"
   sodipodi:docname="gamr.svg">
  <defs
     id="defs2" />
  <sodipodi:namedview
     id="base"
     pagecolor="#ffffff"
     bordercolor="#666666"
     borderopacity="1.0"
     inkscape:pageopacity="0.0"
     inkscape:pageshadow="2"
     inkscape:zoom="1.4"
     inkscape:cx="314.65911"
     inkscape:cy="298.70648"
     inkscape:document-units="mm"
     inkscape:current-layer="layer1"
     showgrid="false"
     showguides="true"
     inkscape:guide-bbox="true"
     inkscape:window-width="1920"
     inkscape:window-height="1136"
     inkscape:window-x="0"
     inkscape:window-y="27"
     inkscape:window-maximized="1"
     fit-margin-top="0"
     fit-margin-left="0"
     fit-margin-right="0"
     fit-margin-bottom="0" />
  <metadata
     id="metadata5">
    <rdf:RDF>
      <cc:Work
         rdf:about="">
        <dc:format>image/svg+xml</dc:format>
        <dc:type
           rdf:resource="http://purl.org/dc/dcmitype/StillImage" />
        <dc:title></dc:title>
      </cc:Work>
    </rdf:RDF>
  </metadata>
  <g
     inkscape:label="Layer 1"
     inkscape:groupmode="layer"
     id="layer1"
     transform="translate(-9.5395994,-50.181545)">
    <path
       style="stroke-width:0.26458332"
       d="m 51.701367,50.181545 h 105.564723 c 7.40336,0 13.36347,5.960111 13.36347,13.363477 v 65.499238 c 0,7.40337 -5.96011,13.36348 -13.36347,13.36348 h -105.564723 c -7.403366,0 -13.363476,-5.96011 -13.363476,-13.36348 v -65.499238 c 0,-7.403366 5.96011,-13.363477 13.363476,-13.363477 z"
       id="rect3699" />
    <path
       style="stroke-width:0.02735473"
       d="m 10.316779,63.144115 h 22.760424 c 0.430557,0 0.77718,0.346623 0.77718,0.77718 v 3.80924 c 0,0.430558 -0.346623,0.77718 -0.77718,0.77718 h -22.760424 c -0.4305574,0 -0.7771796,-0.346622 -0.7771796,-0.77718 v -3.80924 c 0,-0.430557 0.3466222,-0.77718 0.7771796,-0.77718 z"
       id="rect3699-3" />
    <path
       style="stroke-width:0.02735473"
       d="m 10.316779,73.300354 h 22.760424 c 0.430557,0 0.77718,0.346622 0.77718,0.77718 v 3.80924 c 0,0.430558 -0.346623,0.77718 -0.77718,0.77718 h -22.760424 c -0.4305574,0 -0.7771796,-0.346622 -0.7771796,-0.77718 v -3.80924 c 0,-0.430558 0.3466222,-0.77718 0.7771796,-0.77718 z"
       id="rect3699-3-6" />
    <path
       style="stroke-width:0.02735473"
       d="m 10.316779,83.456596 h 22.760424 c 0.430557,0 0.77718,0.346623 0.77718,0.77718 v 3.80924 c 0,0.430558 -0.346623,0.77718 -0.77718,0.77718 h -22.760424 c -0.4305574,0 -0.7771796,-0.346622 -0.7771796,-0.77718 v -3.80924 c 0,-0.430557 0.3466222,-0.77718 0.7771796,-0.77718 z"
       id="rect3699-3-6-7" />
    <path
       style="stroke-width:0.02735473"
       d="m 10.316779,93.612846 h 22.760424 c 0.430557,0 0.77718,0.346623 0.77718,0.77718 v 3.80924 c 0,0.430558 -0.346623,0.77718 -0.77718,0.77718 h -22.760424 c -0.4305574,0 -0.7771796,-0.346622 -0.7771796,-0.77718 v -3.80924 c 0,-0.430557 0.3466222,-0.77718 0.7771796,-0.77718 z"
       id="rect3699-3-6-7-5" />
    <path
       style="stroke-width:0.02735473"
       d="m 10.316779,103.76909 h 22.760424 c 0.430557,0 0.77718,0.34662 0.77718,0.77718 v 3.80924 c 0,0.43056 -0.346623,0.77718 -0.77718,0.77718 h -22.760424 c -0.4305574,0 -0.7771796,-0.34662 -0.7771796,-0.77718 v -3.80924 c 0,-0.43056 0.3466222,-0.77718 0.7771796,-0.77718 z"
       id="rect3699-3-6-7-5-3" />
    <path
       style="stroke-width:0.02735473"
       d="m 10.316779,113.92534 h 22.760424 c 0.430557,0 0.77718,0.34662 0.77718,0.77718 v 3.80924 c 0,0.43056 -0.346623,0.77718 -0.77718,0.77718 h -22.760424 c -0.4305574,0 -0.7771796,-0.34662 -0.7771796,-0.77718 v -3.80924 c 0,-0.43056 0.3466222,-0.77718 0.7771796,-0.77718 z"
       id="rect3699-3-6-7-5-3-5" />
    <path
       style="stroke-width:0.02735473"
       d="m 10.316779,124.08157 h 22.760424 c 0.430557,0 0.77718,0.34663 0.77718,0.77718 v 3.80924 c 0,0.43056 -0.346623,0.77718 -0.77718,0.77718 h -22.760424 c -0.4305574,0 -0.7771796,-0.34662 -0.7771796,-0.77718 v -3.80924 c 0,-0.43055 0.3466222,-0.77718 0.7771796,-0.77718 z"
       id="rect3699-3-6-7-5-3-5-6" />
    <path
       style="stroke-width:0.02735473"
       d="m 175.89026,63.144115 h 22.76043 c 0.43055,0 0.77718,0.346623 0.77718,0.77718 v 3.80924 c 0,0.430558 -0.34663,0.77718 -0.77718,0.77718 h -22.76043 c -0.43055,0 -0.77718,-0.346622 -0.77718,-0.77718 v -3.80924 c 0,-0.430557 0.34663,-0.77718 0.77718,-0.77718 z"
       id="rect3699-3-9" />
    <path
       style="stroke-width:0.02735473"
       d="m 175.89026,73.300354 h 22.76043 c 0.43055,0 0.77718,0.346622 0.77718,0.77718 v 3.80924 c 0,0.430558 -0.34663,0.77718 -0.77718,0.77718 h -22.76043 c -0.43055,0 -0.77718,-0.346622 -0.77718,-0.77718 v -3.80924 c 0,-0.430558 0.34663,-0.77718 0.77718,-0.77718 z"
       id="rect3699-3-6-1" />
    <path
       style="stroke-width:0.02735473"
       d="m 175.89026,83.456596 h 22.76043 c 0.43055,0 0.77718,0.346623 0.77718,0.77718 v 3.80924 c 0,0.430558 -0.34663,0.77718 -0.77718,0.77718 h -22.76043 c -0.43055,0 -0.77718,-0.346622 -0.77718,-0.77718 v -3.80924 c 0,-0.430557 0.34663,-0.77718 0.77718,-0.77718 z"
       id="rect3699-3-6-7-2" />
    <path
       style="stroke-width:0.02735473"
       d="m 175.89026,93.612846 h 22.76043 c 0.43055,0 0.77718,0.346623 0.77718,0.77718 v 3.80924 c 0,0.430558 -0.34663,0.77718 -0.77718,0.77718 h -22.76043 c -0.43055,0 -0.77718,-0.346622 -0.77718,-0.77718 v -3.80924 c 0,-0.430557 0.34663,-0.77718 0.77718,-0.77718 z"
       id="rect3699-3-6-7-5-7" />
    <path
       style="stroke-width:0.02735473"
       d="m 175.89026,103.76909 h 22.76043 c 0.43055,0 0.77718,0.34662 0.77718,0.77718 v 3.80924 c 0,0.43056 -0.34663,0.77718 -0.77718,0.77718 h -22.76043 c -0.43055,0 -0.77718,-0.34662 -0.77718,-0.77718 v -3.80924 c 0,-0.43056 0.34663,-0.77718 0.77718,-0.77718 z"
       id="rect3699-3-6-7-5-3-0" />
    <path
       style="stroke-width:0.02735473"
       d="m 175.89026,113.92534 h 22.76043 c 0.43055,0 0.77718,0.34662 0.77718,0.77718 v 3.80924 c 0,0.43056 -0.34663,0.77718 -0.77718,0.77718 h -22.76043 c -0.43055,0 -0.77718,-0.34662 -0.77718,-0.77718 v -3.80924 c 0,-0.43056 0.34663,-0.77718 0.77718,-0.77718 z"
       id="rect3699-3-6-7-5-3-5-9" />
    <path
       style="stroke-width:0.02735473"
       d="m 175.89026,124.08157 h 22.76043 c 0.43055,0 0.77718,0.34663 0.77718,0.77718 v 3.80924 c 0,0.43056 -0.34663,0.77718 -0.77718,0.77718 h -22.76043 c -0.43055,0 -0.77718,-0.34662 -0.77718,-0.77718 v -3.80924 c 0,-0.43055 0.34663,-0.77718 0.77718,-0.77718 z"
       id="rect3699-3-6-7-5-3-5-6-3" />
    <path
       style="fill:#ffffff;fill-opacity:1;stroke-width:1.4854368"
       d="M 290.18945 42.871094 L 290.18945 92.208984 L 233.95508 92.208984 C 231.01604 92.208984 228.65039 94.574628 228.65039 97.513672 C 228.65039 100.45272 231.01604 102.81836 233.95508 102.81836 L 290.18945 102.81836 L 290.18945 152.15625 L 349.60742 152.15625 L 349.60742 151.57422 A 54.112343 54.112343 0 0 0 350.66797 151.62695 A 54.112343 54.112343 0 0 0 404.51562 102.81836 L 405.73633 102.81836 A 15.38488 15.38488 0 0 0 420.16602 112.89844 A 15.38488 15.38488 0 0 0 434.58594 102.81836 L 485.41992 102.81836 C 488.35896 102.81836 490.72461 100.45272 490.72461 97.513672 C 490.72461 94.574628 488.35896 92.208984 485.41992 92.208984 L 434.5957 92.208984 A 15.38488 15.38488 0 0 0 420.16602 82.128906 A 15.38488 15.38488 0 0 0 405.74609 92.208984 L 404.4668 92.208984 A 54.112343 54.112343 0 0 0 350.66797 43.402344 A 54.112343 54.112343 0 0 0 349.60742 43.439453 L 349.60742 42.871094 L 290.18945 42.871094 z "
       transform="matrix(0.26458333,0,0,0.26458333,9.5395994,50.181545)"
       id="path3851" />
    <path
       style="fill:#ffffff;fill-opacity:1;stroke-width:0.26458332"
       d="m 149.67416,108.48434 a 4.0632439,4.0632439 0 0 1 -4.06324,4.06324 4.0632439,4.0632439 0 0 1 -4.06325,-4.06324 4.0632439,4.0632439 0 0 1 4.06325,-4.06325 4.0632439,4.0632439 0 0 1 4.06324,4.06325 z"
       id="path4690" />
    <path
       style="fill:#ffffff;fill-opacity:1;stroke-width:0.26458332"
       d="m 149.67416,124.72994 a 4.0632439,4.0632439 0 0 1 -4.06324,4.06325 4.0632439,4.0632439 0 0 1 -4.06325,-4.06325 4.0632439,4.0632439 0 0 1 4.06325,-4.06324 4.0632439,4.0632439 0 0 1 4.06324,4.06324 z"
       id="path4690-0" />
    <path
       style="fill:#ffffff;fill-opacity:1;stroke-width:0.26458332"
       d="m 157.78587,116.5714 a 4.0632439,4.0632439 0 0 1 -4.06324,4.06325 4.0632439,4.0632439 0 0 1 -4.06325,-4.06325 4.0632439,4.0632439 0 0 1 4.06325,-4.06324 4.0632439,4.0632439 0 0 1 4.06324,4.06324 z"
       id="path4690-2" />
    <path
       style="fill:#ffffff;fill-opacity:1;stroke-width:0.26458332"
       d="m 141.54715,116.5714 a 4.0632439,4.0632439 0 0 1 -4.06325,4.06325 4.0632439,4.0632439 0 0 1 -4.06324,-4.06325 4.0632439,4.0632439 0 0 1 4.06324,-4.06324 4.0632439,4.0632439 0 0 1 4.06325,4.06324 z"
       id="path4690-61" />
    <path
       style="fill:#ffffff;fill-opacity:1;stroke-width:0.99999994"
       d="M 193.32812 205.0957 C 191.34955 205.0957 189.75781 206.68747 189.75781 208.66602 L 189.75781 235.61133 L 162.47656 235.61133 C 160.49799 235.61133 158.9043 237.20501 158.9043 239.18359 L 158.9043 262.75391 C 158.9043 264.73249 160.49799 266.32617 162.47656 266.32617 L 189.75781 266.32617 L 189.75781 293.44727 C 189.75781 295.42585 191.34955 297.01953 193.32812 297.01953 L 216.90039 297.01953 C 218.87896 297.01953 220.4707 295.42585 220.4707 293.44727 L 220.4707 266.32617 L 247.76172 266.32617 C 249.74029 266.32617 251.33398 264.73249 251.33398 262.75391 L 251.33398 239.18359 C 251.33398 237.20501 249.74029 235.61133 247.76172 235.61133 L 220.4707 235.61133 L 220.4707 208.66602 C 220.4707 206.68747 218.87896 205.0957 216.90039 205.0957 L 193.32812 205.0957 z "
       transform="matrix(0.26458333,0,0,0.26458333,9.5395994,50.181545)"
       id="rect4799" />
    <path
       inkscape:connector-curvature="0"
       id="path8178"
       style="font-style:normal;font-variant:normal;font-weight:bold;font-stretch:normal;font-size:50.79999924px;line-height:1.25;font-family:'Adobe Courier';-inkscape-font-specification:'Adobe Courier Bold';letter-spacing:0px;word-spacing:0px;fill:#000000;fill-opacity:1;stroke:none;stroke-width:0.26458332"
       d="m 56.337837,182.7437 q -3.571875,1.73633 -7.416602,2.6045 -3.844726,0.86816 -7.9375,0.86816 -9.252148,0 -14.65957,-5.15937 -5.407422,-5.18418 -5.407422,-14.03946 0,-8.95449 5.506641,-14.08906 5.506641,-5.13457 15.08125,-5.13457 3.695898,0 7.069336,0.69453 3.398242,0.69453 6.399609,2.05879 v 7.66465 q -3.100586,-1.76113 -6.176367,-2.6293 -3.050977,-0.86816 -6.126758,-0.86816 -5.705078,0 -8.805664,3.1998 -3.075781,3.175 -3.075781,9.10332 0,5.87871 2.976562,9.07852 2.976563,3.1998 8.458399,3.1998 1.488281,0 2.75332,-0.17363 1.289844,-0.19844 2.306836,-0.59531 v -7.19336 h -5.829102 v -6.39961 h 14.882813 z" />
    <path
       inkscape:connector-curvature="0"
       id="path8180"
       style="font-style:normal;font-variant:normal;font-weight:bold;font-stretch:normal;font-size:50.79999924px;line-height:1.25;font-family:'Adobe Courier';-inkscape-font-specification:'Adobe Courier Bold';letter-spacing:0px;word-spacing:0px;fill:#000000;fill-opacity:1;stroke:none;stroke-width:0.26458332"
       d="m 87.194868,178.75015 h -14.932422 l -2.356445,6.74687 h -9.599414 l 13.716992,-37.03339 h 11.385352 l 13.716992,37.03339 h -9.599414 z m -12.551172,-6.8709 h 10.145117 l -5.060156,-14.73398 z" />
    <path
       inkscape:connector-curvature="0"
       id="path8182"
       style="font-style:normal;font-variant:normal;font-weight:bold;font-stretch:normal;font-size:50.79999924px;line-height:1.25;font-family:'Adobe Courier';-inkscape-font-specification:'Adobe Courier Bold';letter-spacing:0px;word-spacing:0px;fill:#000000;fill-opacity:1;stroke:none;stroke-width:0.26458332"
       d="m 104.01244,148.46363 h 12.1543 l 8.43359,19.81894 8.4832,-19.81894 h 12.1295 v 37.03339 h -9.02891 v -27.08671 l -8.53281,19.96777 h -6.05235 l -8.53281,-19.96777 v 27.08671 h -9.05371 z" />
    <path
       inkscape:connector-curvature="0"
       id="path8184"
       style="font-style:normal;font-variant:normal;font-weight:bold;font-stretch:normal;font-size:50.79999924px;line-height:1.25;font-family:'Adobe Courier';-inkscape-font-specification:'Adobe Courier Bold';letter-spacing:0px;word-spacing:0px;fill:#000000;fill-opacity:1;stroke:none;stroke-width:0.26458332"
       d="m 168.18217,164.88433 q 3.00136,0 4.29121,-1.11621 1.31465,-1.11621 1.31465,-3.6711 0,-2.53007 -1.31465,-3.62148 -1.28985,-1.09141 -4.29121,-1.09141 h -4.01836 v 9.5002 z m -4.01836,6.59805 v 14.01464 h -9.54981 v -37.03339 h 14.58516 q 7.31738,0 10.71562,2.45566 3.42305,2.45566 3.42305,7.76387 0,3.67109 -1.78594,6.02754 -1.76113,2.35644 -5.333,3.47265 1.95957,0.44649 3.49746,2.03399 1.56269,1.56269 3.15019,4.7625 l 5.18418,10.51718 h -10.16992 l -4.51445,-9.20253 q -1.36426,-2.77813 -2.77813,-3.79512 -1.38906,-1.01699 -3.7207,-1.01699 z" />
  </g>
</svg>
