<?xml version="1.0" encoding="UTF-8" standalone="no"?>
<svg
   xmlns:dc="http://purl.org/dc/elements/1.1/"
   xmlns:cc="http://creativecommons.org/ns#"
   xmlns:rdf="http://www.w3.org/1999/02/22-rdf-syntax-ns#"
   xmlns:svg="http://www.w3.org/2000/svg"
   xmlns="http://www.w3.org/2000/svg"
   id="svg8"
   version="1.1"
   viewBox="0 0 189.88826 136.03482"
   height="136.03482mm"
   width="189.88826mm">
  <defs
     id="defs2" />
  <metadata
     id="metadata5">
    <rdf:RDF>
      <cc:Work
         rdf:about="">
        <dc:format>image/svg+xml</dc:format>
        <dc:type
           rdf:resource="http://purl.org/dc/dcmitype/StillImage" />
        <dc:title></dc:title>
      </cc:Work>
    </rdf:RDF>
  </metadata>
  <g
     id="layer1"
     transform="translate(-9.5395994,-50.181545)">
    <path
       style="stroke-width:0.26458332"
       d="M51.701367 50.181545L61.2981124678 50.181545L70.8943228715 50.181545L80.4906973606 50.181545L90.087834515 50.181545L99.6839783499 50.181545L109.280280033 50.181545L118.876977869 50.181545L128.473962148 50.181545L138.071227765 50.181545L147.668984841 50.181545L157.26609 50.181545L163.954250471 51.9621582535L168.848428304 56.855957426L170.62956 63.545022L170.62956 72.9011834047L170.62956 82.2587485345L170.62956 91.6153560698L170.62956 100.973086317L170.62956 110.330468966L170.62956 119.687087811L170.62956 129.04426L168.848947216 135.732427458L163.955150127 140.626607946L157.26609 142.40774L147.669344532 142.40774L138.073134128 142.40774L128.476759639 142.40774L118.879622485 142.40774L109.28347865 142.40774L99.6871769669 142.40774L90.0904791309 142.40774L80.493494852 142.40774L70.8962292346 142.40774L61.2984721594 142.40774L51.701367 142.40774L45.0132023369 140.627126858L40.1190229107 135.733327115L38.337891 129.04426L38.337891 119.688098595L38.337891 110.330533465L38.337891 100.97392593L38.337891 91.6161956834L38.337891 82.258813034L38.337891 72.9021941887L38.337891 63.545022L40.1185039992 56.8568570826L45.0123026803 51.962677165L51.701367 50.181545L51.701367 50.181545"
       id="rect3699" />
    <path
       style="stroke-width:0.02735473"
       d="M10.316779 63.144115L17.9035788207 63.144115L25.4903442857 63.144115L33.077203 63.144115L33.854383 63.921295L33.854383 67.730535L33.077203 68.507715L25.4904031793 68.507715L17.9036377143 68.507715L10.316779 68.507715L9.5395994 67.730535L9.5395994 63.921295L10.316779 63.144115L10.316779 63.144115"
       id="rect3699-3" />
    <path
       style="stroke-width:0.02735473"
       d="M10.316779 73.300354L17.9035788207 73.300354L25.4903442857 73.300354L33.077203 73.300354L33.854383 74.077534L33.854383 77.886774L33.077203 78.663954L25.4904031793 78.663954L17.9036377143 78.663954L10.316779 78.663954L9.5395994 77.886774L9.5395994 74.077534L10.316779 73.300354L10.316779 73.300354"
       id="rect3699-3-6" />
    <path
       style="stroke-width:0.02735473"
       d="M10.316779 83.456596L17.9035788207 83.456596L25.4903442857 83.456596L33.077203 83.456596L33.854383 84.233776L33.854383 88.043016L33.077203 88.820196L25.4904031793 88.820196L17.9036377143 88.820196L10.316779 88.820196L9.5395994 88.043016L9.5395994 84.233776L10.316779 83.456596L10.316779 83.456596"
       id="rect3699-3-6-7" />
    <path
       style="stroke-width:0.02735473"
       d="M10.316779 93.612846L17.9035788207 93.612846L25.4903442857 93.612846L33.077203 93.612846L33.854383 94.390026L33.854383 98.199266L33.077203 98.976446L25.4904031793 98.976446L17.9036377143 98.976446L10.316779 98.976446L9.5395994 98.199266L9.5395994 94.390026L10.316779 93.612846L10.316779 93.612846"
       id="rect3699-3-6-7-5" />
    <path
       style="stroke-width:0.02735473"
       d="M10.316779 103.76909L17.9035788207 103.76909L25.4903442857 103.76909L33.077203 103.76909L33.854383 104.54627L33.854383 108.35551L33.077203 109.13269L25.4904031793 109.13269L17.9036377143 109.13269L10.316779 109.13269L9.5395994 108.35551L9.5395994 104.54627L10.316779 103.76909L10.316779 103.76909"
       id="rect3699-3-6-7-5-3" />
    <path
       style="stroke-width:0.02735473"
       d="M10.316779 113.92534L17.9035788207 113.92534L25.4903442857 113.92534L33.077203 113.92534L33.854383 114.70252L33.854383 118.51176L33.077203 119.28894L25.4904031793 119.28894L17.9036377143 119.28894L10.316779 119.28894L9.5395994 118.51176L9.5395994 114.70252L10.316779 113.92534L10.316779 113.92534"
       id="rect3699-3-6-7-5-3-5" />
    <path
       style="stroke-width:0.02735473"
       d="M10.316779 124.08157L17.9035788207 124.08157L25.4903442857 124.08157L33.077203 124.08157L33.854383 124.85875L33.854383 128.66799L33.077203 129.44517L25.4904031793 129.44517L17.9036377143 129.44517L10.316779 129.44517L9.5395994 128.66799L9.5395994 124.85875L10.316779 124.08157L10.316779 124.08157"
       id="rect3699-3-6-7-5-3-5-6" />
    <path
       style="stroke-width:0.02735473"
       d="M175.89026 63.144115L183.477061821 63.144115L191.063829286 63.144115L198.65069 63.144115L199.42787 63.921295L199.42787 67.730535L198.65069 68.507715L191.063888179 68.507715L183.477120714 68.507715L175.89026 68.507715L175.11308 67.730535L175.11308 63.921295L175.89026 63.144115L175.89026 63.144115"
       id="rect3699-3-9" />
    <path
       style="stroke-width:0.02735473"
       d="M175.89026 73.300354L183.477061821 73.300354L191.063829286 73.300354L198.65069 73.300354L199.42787 74.077534L199.42787 77.886774L198.65069 78.663954L191.063888179 78.663954L183.477120714 78.663954L175.89026 78.663954L175.11308 77.886774L175.11308 74.077534L175.89026 73.300354L175.89026 73.300354"
       id="rect3699-3-6-1" />
    <path
       style="stroke-width:0.02735473"
       d="M175.89026 83.456596L183.477061821 83.456596L191.063829286 83.456596L198.65069 83.456596L199.42787 84.233776L199.42787 88.043016L198.65069 88.820196L191.063888179 88.820196L183.477120714 88.820196L175.89026 88.820196L175.11308 88.043016L175.11308 84.233776L175.89026 83.456596L175.89026 83.456596"
       id="rect3699-3-6-7-2" />
    <path
       style="stroke-width:0.02735473"
       d="M175.89026 93.612846L183.477061821 93.612846L191.063829286 93.612846L198.65069 93.612846L199.42787 94.390026L199.42787 98.199266L198.65069 98.976446L191.063888179 98.976446L183.477120714 98.976446L175.89026 98.976446L175.11308 98.199266L175.11308 94.390026L175.89026 93.612846L175.89026 93.612846"
       id="rect3699-3-6-7-5-7" />
    <path
       style="stroke-width:0.02735473"
       d="M175.89026 103.76909L183.477061821 103.76909L191.063829286 103.76909L198.65069 103.76909L199.42787 104.54627L199.42787 108.35551L198.65069 109.13269L191.063888179 109.13269L183.477120714 109.13269L175.89026 109.13269L175.11308 108.35551L175.11308 104.54627L175.89026 103.76909L175.89026 103.76909"
       id="rect3699-3-6-7-5-3-0" />
    <path
       style="stroke-width:0.02735473"
       d="M175.89026 113.92534L183.477061821 113.92534L191.063829286 113.92534L198.65069 113.92534L199.42787 114.70252L199.42787 118.51176L198.65069 119.28894L191.063888179 119.28894L183.477120714 119.28894L175.89026 119.28894L175.11308 118.51176L175.11308 114.70252L175.89026 113.92534L175.89026 113.92534"
       id="rect3699-3-6-7-5-3-5-9" />
    <path
       style="stroke-width:0.02735473"
       d="M175.89026 124.08157L183.477061821 124.08157L191.063829286 124.08157L198.65069 124.08157L199.42787 124.85875L199.42787 128.66799L198.65069 129.44517L191.063888179 129.44517L183.477120714 129.44517L175.89026 129.44517L175.11308 128.66799L175.11308 124.85875L175.89026 124.08157L175.89026 124.08157"
       id="rect3699-3-6-7-5-3-5-6-3" />
    <path
       style="fill:#ffffff;fill-opacity:1;stroke-width:1.4854368"
       d="M325.23828 42.273438L316.474433372 42.350060764L307.713977083 42.5493095656L298.9527253 42.7604965173L290.18945 42.871094L297.332103828 47.5268240451L303.718188751 53.1769083588L309.17773 59.724609L299.599383317 59.724609L290.019599574 59.724609L280.440796167 59.724609L270.860843386 59.724609L261.281246457 59.724609L251.70243147 59.724609L242.12305 59.724609L238.47231875 61.23208575L236.96484 64.882812L236.96484 65.775391L238.47231875 69.426116125L242.12305 70.933594L251.279317152 70.933594L260.43453534 70.933594L269.59022524 70.933594L278.745382946 70.933594L287.900693926 70.933594L297.057214732 70.933594L306.213340335 70.933594L315.36914 70.933594L318.197485202 79.6820141541L319.662803609 88.7593351867L319.796034235 97.9546392126L318.653222294 107.080683812L316.30469 115.97461L307.031472636 115.97461L297.759317635 115.97461L288.486684896 115.97461L279.214591149 115.97461L269.94234217 115.97461L260.668867912 115.97461L251.395793905 115.97461L242.12305 115.97461L238.47231875 117.4820875L236.96484 121.13281L236.96484 122.02539L238.47231875 125.67611625L242.12305 127.18359L252.028096213 127.18359L261.934628502 127.18359L271.840147019 127.18359L281.746854111 127.18359L291.653193214 127.18359L301.558723704 127.18359L311.46484 127.18359L307.17452398 134.24119749L302.146718249 140.792952545L296.45733892 146.78020586L290.18945 152.15625L300.076168793 152.572340214L309.96675347 152.839592011L319.861992072 152.872015686L329.753185339 152.582018608L339.621104562 151.870536792L349.434007279 150.617198852L359.132839496 148.670024473L368.608781199 145.836920056L377.673163563 141.885966076L386.012955121 136.58199336L393.187044825 129.793383719L398.753274337 121.636298721L402.495058156 112.493609142L404.51562 102.81836L405.73633 102.81836L411.36722 110.125845L420.16602 112.89844L428.9590575 110.12305125L434.58594 102.81836L443.058636499 102.81836L451.53057122 102.81836L460.002851655 102.81836L468.475220733 102.81836L476.948061407 102.81836L485.41992 102.81836L489.174405 101.268159L490.72461 97.513672L489.174405 93.7591865L485.41992 92.208984L476.948850238 92.208984L468.478542108 92.208984L460.00788833 92.208984L451.537145926 92.208984L443.065932017 92.208984L434.5957 92.208984L428.96481875 84.90150375L420.16602 82.128906L411.37297375 84.904294125L405.74609 92.208984L404.4668 92.208984L401.622102588 83.3020195351L397.793920214 74.7734109724L392.82382519 66.8585379629L386.634523412 59.8587594877L379.309717562 54.0589462384L371.098028101 49.5998684997L362.307401427 46.4216939802L353.193440161 44.3278618019L343.925038638 43.0813147923L334.590764415 42.4597170505L325.23828 42.273438L325.23828 42.273438"
       transform="matrix(0.26458333,0,0,0.26458333,9.5395994,50.181545)"
       id="path3851" />
    <path
       style="fill:#ffffff;fill-opacity:1;stroke-width:0.26458332"
       d="M149.67416 108.48434L148.484063415 111.357483415L145.61092 112.54758L142.73777012 111.357486951L141.54767 108.48434L142.737766585 105.611186585L145.61092 104.42109L148.484066951 105.61119012L149.67416 108.48434L149.67416 108.48434"
       id="path4690" />
    <path
       style="fill:#ffffff;fill-opacity:1;stroke-width:0.26458332"
       d="M149.67416 124.72994L148.484066951 127.60308988L145.61092 128.79319L142.737766585 127.603093415L141.54767 124.72994L142.73777012 121.856793049L145.61092 120.6667L148.484063415 121.856796585L149.67416 124.72994L149.67416 124.72994"
       id="path4690-0" />
    <path
       style="fill:#ffffff;fill-opacity:1;stroke-width:0.26458332"
       d="M157.78587 116.5714L156.595776951 119.44454988L153.72263 120.63465L150.849476585 119.444553415L149.65938 116.5714L150.84948012 113.698253049L153.72263 112.50816L156.595773415 113.698256585L157.78587 116.5714L157.78587 116.5714"
       id="path4690-2" />
    <path
       style="fill:#ffffff;fill-opacity:1;stroke-width:0.26458332"
       d="M141.54715 116.5714L140.357053415 119.444553415L137.4839 120.63465L134.610753049 119.44454988L133.42066 116.5714L134.610756585 113.698256585L137.4839 112.50816L140.35704988 113.698253049L141.54715 116.5714L141.54715 116.5714"
       id="path4690-61" />
    <path
       style="fill:#ffffff;fill-opacity:1;stroke-width:0.99999994"
       d="M193.32812 205.0957L190.80100125 206.13890375L189.75781 208.66602L189.75781 235.61133L162.47656 235.61133L159.94846625 236.6554925L158.9043 239.18359L158.9043 262.75391L159.94846625 265.2820075L162.47656 266.32617L189.75781 266.32617L189.75781 293.44727L190.80100125 295.9753675L193.32812 297.01953L216.90039 297.01953L219.42750875 295.9753675L220.4707 293.44727L220.4707 266.32617L247.76172 266.32617L250.28981375 265.2820075L251.33398 262.75391L251.33398 239.18359L250.28981375 236.6554925L247.76172 235.61133L220.4707 235.61133L220.4707 208.66602L219.42750875 206.13890375L216.90039 205.0957L193.32812 205.0957L193.32812 205.0957"
       transform="matrix(0.26458333,0,0,0.26458333,9.5395994,50.181545)"
       id="rect4799" />
    <path
       id="path8178"
       style="font-style:normal;font-variant:normal;font-weight:bold;font-stretch:normal;font-size:50.79999924px;line-height:1.25;font-family:'Adobe Courier';-inkscape-font-specification:'Adobe Courier Bold';letter-spacing:0px;word-spacing:0px;fill:#000000;fill-opacity:1;stroke:none;stroke-width:0.26458332"
       d="M56.337837 182.7437L48.921235 185.3482L40.983735 186.21636L33.1291822696 185.074428094L26.324165 181.05699L22.1442033689 174.622233699L20.916743 167.01753L22.1616066931 159.366010723L26.423384 152.92847L33.4503724619 148.913304557L41.504634 147.7939L48.57397 148.48843L54.973579 150.54722L54.973579 158.21187L48.797212 155.58257L42.670454 154.71441L37.616499 155.51436L33.86479 157.91421L31.55795425 161.77754L30.789009 167.01753L31.5331495 172.226515L33.765571 176.09605L37.36845225 178.4959L42.22397 179.29585L44.97729 179.12222L47.284126 178.52691L47.284126 171.33355L41.455024 171.33355L41.455024 164.93394L48.8964305 164.93394L56.337837 164.93394L56.337837 173.83882L56.337837 182.7437" />
    <path
       id="path8180"
       style="font-style:normal;font-variant:normal;font-weight:bold;font-stretch:normal;font-size:50.79999924px;line-height:1.25;font-family:'Adobe Courier';-inkscape-font-specification:'Adobe Courier Bold';letter-spacing:0px;word-spacing:0px;fill:#000000;fill-opacity:1;stroke:none;stroke-width:0.26458332"
       d="M87.194868 178.75015L79.728657 178.75015L72.262446 178.75015L69.906001 185.49702L60.306587 185.49702L63.7358921428 176.238518225L67.1648354982 166.98099321L70.5941317937 157.722515321L74.023579 148.46363L79.716255 148.46363L85.408931 148.46363L88.8382361428 157.722131775L92.2671794982 166.97965679L95.6964757937 176.238134679L99.125923 185.49702L89.526509 185.49702L87.194868 178.75015M74.643696 171.87925L79.7162545 171.87925L84.788813 171.87925L82.258735 164.51226L79.728657 157.14527L77.1861765 164.51226L74.643696 171.87925" />
    <path
       id="path8182"
       style="font-style:normal;font-variant:normal;font-weight:bold;font-stretch:normal;font-size:50.79999924px;line-height:1.25;font-family:'Adobe Courier';-inkscape-font-specification:'Adobe Courier Bold';letter-spacing:0px;word-spacing:0px;fill:#000000;fill-opacity:1;stroke:none;stroke-width:0.26458332"
       d="M104.01244 148.46363L110.08959 148.46363L116.16674 148.46363L118.977933636 155.069936211L121.789114542 161.676212507L124.60033 168.28257L127.428060285 161.676263789L130.255777765 155.069987493L133.08353 148.46363L139.14828 148.46363L145.21303 148.46363L145.21303 157.722131775L145.21303 166.97965679L145.21303 176.238134679L145.21303 185.49702L136.18412 185.49702L136.18412 176.468126401L136.18412 167.439273687L136.18412 158.41031L133.339853066 165.066226158L130.495599013 171.722112175L127.65131 178.37808L121.59896 178.37808L118.754693066 171.722163842L115.910439013 165.066277825L113.06615 158.41031L113.06615 167.439203599L113.06615 176.468056313L113.06615 185.49702L104.01244 185.49702L104.01244 176.238518225L104.01244 166.98099321L104.01244 157.722515321L104.01244 148.46363" />
    <path
       id="path8184"
       style="font-style:normal;font-variant:normal;font-weight:bold;font-stretch:normal;font-size:50.79999924px;line-height:1.25;font-family:'Adobe Courier';-inkscape-font-specification:'Adobe Courier Bold';letter-spacing:0px;word-spacing:0px;fill:#000000;fill-opacity:1;stroke:none;stroke-width:0.26458332"
       d="M168.18217 164.88433L172.47338 163.76812L173.78803 160.09702L172.47338 156.47554L168.18217 155.38413L164.16381 155.38413L164.16381 164.88433L168.18217 164.88433M164.16381 171.48238L164.16381 178.4897L164.16381 185.49702L154.614 185.49702L154.614 176.238518225L154.614 166.98099321L154.614 157.722515321L154.614 148.46363L161.90658 148.46363L169.19916 148.46363L174.752930915 148.914963285L179.91478 150.91929L182.4820675 154.0880875L183.33783 158.68316L181.55189 164.7107L176.21889 168.18335L179.71635 170.21734L182.86654 174.97984L185.45863 180.23843L188.05072 185.49702L182.96576 185.49702L177.8808 185.49702L175.623575 180.895755L173.36635 176.29449L170.58822 172.49937L166.86752 171.48238L164.16381 171.48238" />
  </g>
</svg>
