  0
SECTION
  2
HEADER
  9
$ACADVER
  1
AC1014
  9
$HANDSEED
  5
FFFF
  9
$MEASUREMENT
 70
     1
  0
ENDSEC
  0
SECTION
  2
TABLES
  0
TABLE
  2
VPORT
  5
8
330
0
100
AcDbSymbolTable
 70
     4
  0
VPORT
  5
2E
330
8
100
AcDbSymbolTableRecord
100
AcDbViewportTableRecord
  2
*ACTIVE
 70
     0
 10
0.0
 20
0.0
 11
1.0
 21
1.0
 12
210.0
 22
148.5
 13
0.0
 23
0.0
 14
10.0
 24
10.0
 15
10.0
 25
10.0
 16
0.0
 26
0.0
 36
1.0
 17
0.0
 27
0.0
 37
0.0
 40
341.0
 41
1.24
 42
50.0
 43
0.0
 44
0.0
 50
0.0
 51
0.0
 71
     0
 72
   100
 73
     1
 74
     3
 75
     0
 76
     0
 77
     0
 78
     0
  0
ENDTAB
  0
TABLE
  2
LTYPE
  5
5
330
0
100
AcDbSymbolTable
 70
     1
  0
LTYPE
  5
14
330
5
100
AcDbSymbolTableRecord
100
AcDbLinetypeTableRecord
  2
BYBLOCK
 70
     0
  3

 72
    65
 73
     0
 40
0.0
  0
LTYPE
  5
15
330
5
100
AcDbSymbolTableRecord
100
AcDbLinetypeTableRecord
  2
BYLAYER
 70
     0
  3

 72
    65
 73
     0
 40
0.0
  0
LTYPE
  5
16
330
5
100
AcDbSymbolTableRecord
100
AcDbLinetypeTableRecord
  2
CONTINUOUS
 70
     0
  3
Solid line
 72
    65
 73
     0
 40
0.0
  0
ENDTAB
  0
TABLE
  2
LAYER
  5
2
100
AcDbSymbolTable
 70
2
  0
LAYER
  5
50
100
AcDbSymbolTableRecord
100
AcDbLayerTableRecord
  2
0
 70
0
  6
CONTINUOUS
  0
LAYER
  5
51
100
AcDbSymbolTableRecord
100
AcDbLayerTableRecord
  2
Layer_1
 70
0
  6
CONTINUOUS
  0
ENDTAB
  0
TABLE
  2
STYLE
  5
3
330
0
100
AcDbSymbolTable
 70
     1
  0
STYLE
  5
11
330
3
100
AcDbSymbolTableRecord
100
AcDbTextStyleTableRecord
  2
STANDARD
 70
     0
 40
0.0
 41
1.0
 50
0.0
 71
     0
 42
2.5
  3
txt
  4

  0
ENDTAB
  0
TABLE
  2
VIEW
  5
6
330
0
100
AcDbSymbolTable
 70
     0
  0
ENDTAB
  0
TABLE
  2
UCS
  5
7
330
0
100
AcDbSymbolTable
 70
     0
  0
ENDTAB
  0
TABLE
  2
APPID
  5
9
330
0
100
AcDbSymbolTable
 70
     2
  0
APPID
  5
12
330
9
100
AcDbSymbolTableRecord
100
AcDbRegAppTableRecord
  2
ACAD
 70
     0
  0
ENDTAB
  0
TABLE
  2
DIMSTYLE
  5
A
330
0
100
AcDbSymbolTable
 70
     1
  0
DIMSTYLE
105
27
330
A
100
AcDbSymbolTableRecord
100
AcDbDimStyleTableRecord
  2
ISO-25
 70
     0
  3

  4

  5

  6

  7

 40
1.0
 41
2.5
 42
0.625
 43
3.75
 44
1.25
 45
0.0
 46
0.0
 47
0.0
 48
0.0
140
2.5
141
2.5
142
0.0
143
0.03937007874016
144
1.0
145
0.0
146
1.0
147
0.625
 71
     0
 72
     0
 73
     0
 74
     0
 75
     0
 76
     0
 77
     1
 78
     8
170
     0
171
     3
172
     1
173
     0
174
     0
175
     0
176
     0
177
     0
178
     0
270
     2
271
     2
272
     2
273
     2
274
     3
340
11
275
     0
280
     0
281
     0
282
     0
283
     0
284
     8
285
     0
286
     0
287
     3
288
     0
  0
ENDTAB
  0
TABLE
  2
BLOCK_RECORD
  5
1
330
0
100
AcDbSymbolTable
 70
     1
  0
BLOCK_RECORD
  5
1F
330
1
100
AcDbSymbolTableRecord
100
AcDbBlockTableRecord
  2
*MODEL_SPACE
  0
BLOCK_RECORD
  5
1B
330
1
100
AcDbSymbolTableRecord
100
AcDbBlockTableRecord
  2
*PAPER_SPACE
  0
ENDTAB
  0
ENDSEC
  0
SECTION
  2
BLOCKS
  0
BLOCK
  5
20
330
1F
100
AcDbEntity
  8
0
100
AcDbBlockBegin
  2
*MODEL_SPACE
 70
     0
 10
0.0
 20
0.0
 30
0.0
  3
*MODEL_SPACE
  1

  0
ENDBLK
  5
21
330
1F
100
AcDbEntity
  8
0
100
AcDbBlockEnd
  0
BLOCK
  5
1C
330
1B
100
AcDbEntity
 67
     1
  8
0
100
AcDbBlockBegin
  2
*PAPER_SPACE
  1

  0
ENDBLK
  5
1D
330
1B
100
AcDbEntity
 67
     1
  8
0
100
AcDbBlockEnd
  0
ENDSEC
  0
SECTION
  2
ENTITIES
  0
LWPOLYLINE
  5
100
100
AcDbEntity
  8
Layer_1
 62
7
100
AcDbPolyline
 90
49
 70
1
 10
42.161768
 20
136.034820
 30
0.0
 10
51.758513
 20
136.034820
 30
0.0
 10
61.354723
 20
136.034820
 30
0.0
 10
70.951098
 20
136.034820
 30
0.0
 10
80.548235
 20
136.034820
 30
0.0
 10
90.144379
 20
136.034820
 30
0.0
 10
99.740681
 20
136.034820
 30
0.0
 10
109.337378
 20
136.034820
 30
0.0
 10
118.934363
 20
136.034820
 30
0.0
 10
128.531628
 20
136.034820
 30
0.0
 10
138.129385
 20
136.034820
 30
0.0
 10
147.726491
 20
136.034820
 30
0.0
 10
154.414651
 20
134.254207
 30
0.0
 10
159.308829
 20
129.360408
 30
0.0
 10
161.089961
 20
122.671343
 30
0.0
 10
161.089961
 20
113.315182
 30
0.0
 10
161.089961
 20
103.957616
 30
0.0
 10
161.089961
 20
94.601009
 30
0.0
 10
161.089961
 20
85.243279
 30
0.0
 10
161.089961
 20
75.885896
 30
0.0
 10
161.089961
 20
66.529277
 30
0.0
 10
161.089961
 20
57.172105
 30
0.0
 10
159.309348
 20
50.483938
 30
0.0
 10
154.415551
 20
45.589757
 30
0.0
 10
147.726491
 20
43.808625
 30
0.0
 10
138.129745
 20
43.808625
 30
0.0
 10
128.533535
 20
43.808625
 30
0.0
 10
118.937160
 20
43.808625
 30
0.0
 10
109.340023
 20
43.808625
 30
0.0
 10
99.743879
 20
43.808625
 30
0.0
 10
90.147578
 20
43.808625
 30
0.0
 10
80.550880
 20
43.808625
 30
0.0
 10
70.953895
 20
43.808625
 30
0.0
 10
61.356630
 20
43.808625
 30
0.0
 10
51.758873
 20
43.808625
 30
0.0
 10
42.161768
 20
43.808625
 30
0.0
 10
35.473603
 20
45.589238
 30
0.0
 10
30.579424
 20
50.483038
 30
0.0
 10
28.798292
 20
57.172105
 30
0.0
 10
28.798292
 20
66.528266
 30
0.0
 10
28.798292
 20
75.885832
 30
0.0
 10
28.798292
 20
85.242439
 30
0.0
 10
28.798292
 20
94.600169
 30
0.0
 10
28.798292
 20
103.957552
 30
0.0
 10
28.798292
 20
113.314171
 30
0.0
 10
28.798292
 20
122.671343
 30
0.0
 10
30.578905
 20
129.359508
 30
0.0
 10
35.472703
 20
134.253688
 30
0.0
 10
42.161768
 20
136.034820
 30
0.0
  0
LWPOLYLINE
  5
101
100
AcDbEntity
  8
Layer_1
 62
7
100
AcDbPolyline
 90
13
 70
1
 10
0.777180
 20
123.072250
 30
0.0
 10
8.363979
 20
123.072250
 30
0.0
 10
15.950745
 20
123.072250
 30
0.0
 10
23.537604
 20
123.072250
 30
0.0
 10
24.314784
 20
122.295070
 30
0.0
 10
24.314784
 20
118.485830
 30
0.0
 10
23.537604
 20
117.708650
 30
0.0
 10
15.950804
 20
117.708650
 30
0.0
 10
8.364038
 20
117.708650
 30
0.0
 10
0.777180
 20
117.708650
 30
0.0
 10
0.000000
 20
118.485830
 30
0.0
 10
0.000000
 20
122.295070
 30
0.0
 10
0.777180
 20
123.072250
 30
0.0
  0
LWPOLYLINE
  5
102
100
AcDbEntity
  8
Layer_1
 62
7
100
AcDbPolyline
 90
13
 70
1
 10
0.777180
 20
112.916011
 30
0.0
 10
8.363979
 20
112.916011
 30
0.0
 10
15.950745
 20
112.916011
 30
0.0
 10
23.537604
 20
112.916011
 30
0.0
 10
24.314784
 20
112.138831
 30
0.0
 10
24.314784
 20
108.329591
 30
0.0
 10
23.537604
 20
107.552411
 30
0.0
 10
15.950804
 20
107.552411
 30
0.0
 10
8.364038
 20
107.552411
 30
0.0
 10
0.777180
 20
107.552411
 30
0.0
 10
0.000000
 20
108.329591
 30
0.0
 10
0.000000
 20
112.138831
 30
0.0
 10
0.777180
 20
112.916011
 30
0.0
  0
LWPOLYLINE
  5
103
100
AcDbEntity
  8
Layer_1
 62
7
100
AcDbPolyline
 90
13
 70
1
 10
0.777180
 20
102.759769
 30
0.0
 10
8.363979
 20
102.759769
 30
0.0
 10
15.950745
 20
102.759769
 30
0.0
 10
23.537604
 20
102.759769
 30
0.0
 10
24.314784
 20
101.982589
 30
0.0
 10
24.314784
 20
98.173349
 30
0.0
 10
23.537604
 20
97.396169
 30
0.0
 10
15.950804
 20
97.396169
 30
0.0
 10
8.364038
 20
97.396169
 30
0.0
 10
0.777180
 20
97.396169
 30
0.0
 10
0.000000
 20
98.173349
 30
0.0
 10
0.000000
 20
101.982589
 30
0.0
 10
0.777180
 20
102.759769
 30
0.0
  0
LWPOLYLINE
  5
104
100
AcDbEntity
  8
Layer_1
 62
7
100
AcDbPolyline
 90
13
 70
1
 10
0.777180
 20
92.603519
 30
0.0
 10
8.363979
 20
92.603519
 30
0.0
 10
15.950745
 20
92.603519
 30
0.0
 10
23.537604
 20
92.603519
 30
0.0
 10
24.314784
 20
91.826339
 30
0.0
 10
24.314784
 20
88.017099
 30
0.0
 10
23.537604
 20
87.239919
 30
0.0
 10
15.950804
 20
87.239919
 30
0.0
 10
8.364038
 20
87.239919
 30
0.0
 10
0.777180
 20
87.239919
 30
0.0
 10
0.000000
 20
88.017099
 30
0.0
 10
0.000000
 20
91.826339
 30
0.0
 10
0.777180
 20
92.603519
 30
0.0
  0
LWPOLYLINE
  5
105
100
AcDbEntity
  8
Layer_1
 62
7
100
AcDbPolyline
 90
13
 70
1
 10
0.777180
 20
82.447275
 30
0.0
 10
8.363979
 20
82.447275
 30
0.0
 10
15.950745
 20
82.447275
 30
0.0
 10
23.537604
 20
82.447275
 30
0.0
 10
24.314784
 20
81.670095
 30
0.0
 10
24.314784
 20
77.860855
 30
0.0
 10
23.537604
 20
77.083675
 30
0.0
 10
15.950804
 20
77.083675
 30
0.0
 10
8.364038
 20
77.083675
 30
0.0
 10
0.777180
 20
77.083675
 30
0.0
 10
0.000000
 20
77.860855
 30
0.0
 10
0.000000
 20
81.670095
 30
0.0
 10
0.777180
 20
82.447275
 30
0.0
  0
LWPOLYLINE
  5
106
100
AcDbEntity
  8
Layer_1
 62
7
100
AcDbPolyline
 90
13
 70
1
 10
0.777180
 20
72.291025
 30
0.0
 10
8.363979
 20
72.291025
 30
0.0
 10
15.950745
 20
72.291025
 30
0.0
 10
23.537604
 20
72.291025
 30
0.0
 10
24.314784
 20
71.513845
 30
0.0
 10
24.314784
 20
67.704605
 30
0.0
 10
23.537604
 20
66.927425
 30
0.0
 10
15.950804
 20
66.927425
 30
0.0
 10
8.364038
 20
66.927425
 30
0.0
 10
0.777180
 20
66.927425
 30
0.0
 10
0.000000
 20
67.704605
 30
0.0
 10
0.000000
 20
71.513845
 30
0.0
 10
0.777180
 20
72.291025
 30
0.0
  0
LWPOLYLINE
  5
107
100
AcDbEntity
  8
Layer_1
 62
7
100
AcDbPolyline
 90
13
 70
1
 10
0.777180
 20
62.134795
 30
0.0
 10
8.363979
 20
62.134795
 30
0.0
 10
15.950745
 20
62.134795
 30
0.0
 10
23.537604
 20
62.134795
 30
0.0
 10
24.314784
 20
61.357615
 30
0.0
 10
24.314784
 20
57.548375
 30
0.0
 10
23.537604
 20
56.771195
 30
0.0
 10
15.950804
 20
56.771195
 30
0.0
 10
8.364038
 20
56.771195
 30
0.0
 10
0.777180
 20
56.771195
 30
0.0
 10
0.000000
 20
57.548375
 30
0.0
 10
0.000000
 20
61.357615
 30
0.0
 10
0.777180
 20
62.134795
 30
0.0
  0
LWPOLYLINE
  5
108
100
AcDbEntity
  8
Layer_1
 62
7
100
AcDbPolyline
 90
13
 70
1
 10
166.350661
 20
123.072250
 30
0.0
 10
173.937462
 20
123.072250
 30
0.0
 10
181.524230
 20
123.072250
 30
0.0
 10
189.111091
 20
123.072250
 30
0.0
 10
189.888271
 20
122.295070
 30
0.0
 10
189.888271
 20
118.485830
 30
0.0
 10
189.111091
 20
117.708650
 30
0.0
 10
181.524289
 20
117.708650
 30
0.0
 10
173.937521
 20
117.708650
 30
0.0
 10
166.350661
 20
117.708650
 30
0.0
 10
165.573481
 20
118.485830
 30
0.0
 10
165.573481
 20
122.295070
 30
0.0
 10
166.350661
 20
123.072250
 30
0.0
  0
LWPOLYLINE
  5
109
100
AcDbEntity
  8
Layer_1
 62
7
100
AcDbPolyline
 90
13
 70
1
 10
166.350661
 20
112.916011
 30
0.0
 10
173.937462
 20
112.916011
 30
0.0
 10
181.524230
 20
112.916011
 30
0.0
 10
189.111091
 20
112.916011
 30
0.0
 10
189.888271
 20
112.138831
 30
0.0
 10
189.888271
 20
108.329591
 30
0.0
 10
189.111091
 20
107.552411
 30
0.0
 10
181.524289
 20
107.552411
 30
0.0
 10
173.937521
 20
107.552411
 30
0.0
 10
166.350661
 20
107.552411
 30
0.0
 10
165.573481
 20
108.329591
 30
0.0
 10
165.573481
 20
112.138831
 30
0.0
 10
166.350661
 20
112.916011
 30
0.0
  0
LWPOLYLINE
  5
10a
100
AcDbEntity
  8
Layer_1
 62
7
100
AcDbPolyline
 90
13
 70
1
 10
166.350661
 20
102.759769
 30
0.0
 10
173.937462
 20
102.759769
 30
0.0
 10
181.524230
 20
102.759769
 30
0.0
 10
189.111091
 20
102.759769
 30
0.0
 10
189.888271
 20
101.982589
 30
0.0
 10
189.888271
 20
98.173349
 30
0.0
 10
189.111091
 20
97.396169
 30
0.0
 10
181.524289
 20
97.396169
 30
0.0
 10
173.937521
 20
97.396169
 30
0.0
 10
166.350661
 20
97.396169
 30
0.0
 10
165.573481
 20
98.173349
 30
0.0
 10
165.573481
 20
101.982589
 30
0.0
 10
166.350661
 20
102.759769
 30
0.0
  0
LWPOLYLINE
  5
10b
100
AcDbEntity
  8
Layer_1
 62
7
100
AcDbPolyline
 90
13
 70
1
 10
166.350661
 20
92.603519
 30
0.0
 10
173.937462
 20
92.603519
 30
0.0
 10
181.524230
 20
92.603519
 30
0.0
 10
189.111091
 20
92.603519
 30
0.0
 10
189.888271
 20
91.826339
 30
0.0
 10
189.888271
 20
88.017099
 30
0.0
 10
189.111091
 20
87.239919
 30
0.0
 10
181.524289
 20
87.239919
 30
0.0
 10
173.937521
 20
87.239919
 30
0.0
 10
166.350661
 20
87.239919
 30
0.0
 10
165.573481
 20
88.017099
 30
0.0
 10
165.573481
 20
91.826339
 30
0.0
 10
166.350661
 20
92.603519
 30
0.0
  0
LWPOLYLINE
  5
10c
100
AcDbEntity
  8
Layer_1
 62
7
100
AcDbPolyline
 90
13
 70
1
 10
166.350661
 20
82.447275
 30
0.0
 10
173.937462
 20
82.447275
 30
0.0
 10
181.524230
 20
82.447275
 30
0.0
 10
189.111091
 20
82.447275
 30
0.0
 10
189.888271
 20
81.670095
 30
0.0
 10
189.888271
 20
77.860855
 30
0.0
 10
189.111091
 20
77.083675
 30
0.0
 10
181.524289
 20
77.083675
 30
0.0
 10
173.937521
 20
77.083675
 30
0.0
 10
166.350661
 20
77.083675
 30
0.0
 10
165.573481
 20
77.860855
 30
0.0
 10
165.573481
 20
81.670095
 30
0.0
 10
166.350661
 20
82.447275
 30
0.0
  0
LWPOLYLINE
  5
10d
100
AcDbEntity
  8
Layer_1
 62
7
100
AcDbPolyline
 90
13
 70
1
 10
166.350661
 20
72.291025
 30
0.0
 10
173.937462
 20
72.291025
 30
0.0
 10
181.524230
 20
72.291025
 30
0.0
 10
189.111091
 20
72.291025
 30
0.0
 10
189.888271
 20
71.513845
 30
0.0
 10
189.888271
 20
67.704605
 30
0.0
 10
189.111091
 20
66.927425
 30
0.0
 10
181.524289
 20
66.927425
 30
0.0
 10
173.937521
 20
66.927425
 30
0.0
 10
166.350661
 20
66.927425
 30
0.0
 10
165.573481
 20
67.704605
 30
0.0
 10
165.573481
 20
71.513845
 30
0.0
 10
166.350661
 20
72.291025
 30
0.0
  0
LWPOLYLINE
  5
10e
100
AcDbEntity
  8
Layer_1
 62
7
100
AcDbPolyline
 90
13
 70
1
 10
166.350661
 20
62.134795
 30
0.0
 10
173.937462
 20
62.134795
 30
0.0
 10
181.524230
 20
62.134795
 30
0.0
 10
189.111091
 20
62.134795
 30
0.0
 10
189.888271
 20
61.357615
 30
0.0
 10
189.888271
 20
57.548375
 30
0.0
 10
189.111091
 20
56.771195
 30
0.0
 10
181.524289
 20
56.771195
 30
0.0
 10
173.937521
 20
56.771195
 30
0.0
 10
166.350661
 20
56.771195
 30
0.0
 10
165.573481
 20
57.548375
 30
0.0
 10
165.573481
 20
61.357615
 30
0.0
 10
166.350661
 20
62.134795
 30
0.0
  0
LWPOLYLINE
  5
10f
100
AcDbEntity
  8
Layer_1
 62
7
100
AcDbPolyline
 90
108
 70
1
 10
86.052627
 20
124.849973
 30
0.0
 10
83.733859
 20
124.829700
 30
0.0
 10
81.415989
 20
124.776982
 30
0.0
 10
79.097908
 20
124.721105
 30
0.0
 10
76.779291
 20
124.691843
 30
0.0
 10
78.669118
 20
123.460015
 30
0.0
 10
80.358770
 20
121.965097
 30
0.0
 10
81.803273
 20
120.232684
 30
0.0
 10
79.269003
 20
120.232684
 30
0.0
 10
76.734351
 20
120.232684
 30
0.0
 10
74.199960
 20
120.232684
 30
0.0
 10
71.665264
 20
120.232684
 30
0.0
 10
69.130662
 20
120.232684
 30
0.0
 10
66.596267
 20
120.232684
 30
0.0
 10
64.061723
 20
120.232684
 30
0.0
 10
63.095800
 20
119.833831
 30
0.0
 10
62.696946
 20
118.867910
 30
0.0
 10
62.696946
 20
118.631748
 30
0.0
 10
63.095800
 20
117.665827
 30
0.0
 10
64.061723
 20
117.266973
 30
0.0
 10
66.484318
 20
117.266973
 30
0.0
 10
68.906637
 20
117.266973
 30
0.0
 10
71.329080
 20
117.266973
 30
0.0
 10
73.751382
 20
117.266973
 30
0.0
 10
76.173724
 20
117.266973
 30
0.0
 10
78.596387
 20
117.266973
 30
0.0
 10
81.018945
 20
117.266973
 30
0.0
 10
83.441417
 20
117.266973
 30
0.0
 10
84.189750
 20
114.952287
 30
0.0
 10
84.577449
 20
112.550580
 30
0.0
 10
84.612700
 20
110.117655
 30
0.0
 10
84.310331
 20
107.703056
 30
0.0
 10
83.688948
 20
105.349871
 30
0.0
 10
81.235409
 20
105.349871
 30
0.0
 10
78.782152
 20
105.349871
 30
0.0
 10
76.328768
 20
105.349871
 30
0.0
 10
73.875526
 20
105.349871
 30
0.0
 10
71.422244
 20
105.349871
 30
0.0
 10
68.968637
 20
105.349871
 30
0.0
 10
66.515136
 20
105.349871
 30
0.0
 10
64.061723
 20
105.349871
 30
0.0
 10
63.095800
 20
104.951018
 30
0.0
 10
62.696946
 20
103.985098
 30
0.0
 10
62.696946
 20
103.748936
 30
0.0
 10
63.095800
 20
102.783015
 30
0.0
 10
64.061723
 20
102.384162
 30
0.0
 10
66.682433
 20
102.384162
 30
0.0
 10
69.303536
 20
102.384162
 30
0.0
 10
71.924371
 20
102.384162
 30
0.0
 10
74.545521
 20
102.384162
 30
0.0
 10
77.166573
 20
102.384162
 30
0.0
 10
79.787411
 20
102.384162
 30
0.0
 10
82.408405
 20
102.384162
 30
0.0
 10
81.273258
 20
100.516837
 30
0.0
 10
79.942985
 20
98.783352
 30
0.0
 10
78.437670
 20
97.199224
 30
0.0
 10
76.779291
 20
95.776813
 30
0.0
 10
79.395152
 20
95.666722
 30
0.0
 10
82.012036
 20
95.596012
 30
0.0
 10
84.630151
 20
95.587433
 30
0.0
 10
87.247196
 20
95.664161
 30
0.0
 10
89.858083
 20
95.852408
 30
0.0
 10
92.454413
 20
96.184020
 30
0.0
 10
95.020563
 20
96.699210
 30
0.0
 10
97.527739
 20
97.448802
 30
0.0
 10
99.926023
 20
98.494159
 30
0.0
 10
102.132593
 20
99.897501
 30
0.0
 10
104.030738
 20
101.693654
 30
0.0
 10
105.503469
 20
103.851883
 30
0.0
 10
106.493483
 20
106.270886
 30
0.0
 10
107.028090
 20
108.830796
 30
0.0
 10
107.351069
 20
108.830796
 30
0.0
 10
108.840909
 20
106.897357
 30
0.0
 10
111.168925
 20
106.163775
 30
0.0
 10
113.495416
 20
106.898096
 30
0.0
 10
114.984195
 20
108.830796
 30
0.0
 10
117.225929
 20
108.830796
 30
0.0
 10
119.467462
 20
108.830796
 30
0.0
 10
121.709086
 20
108.830796
 30
0.0
 10
123.950734
 20
108.830796
 30
0.0
 10
126.192506
 20
108.830796
 30
0.0
 10
128.434019
 20
108.830796
 30
0.0
 10
129.427393
 20
109.240953
 30
0.0
 10
129.837551
 20
110.234328
 30
0.0
 10
129.427393
 20
111.227702
 30
0.0
 10
128.434019
 20
111.637860
 30
0.0
 10
126.192715
 20
111.637860
 30
0.0
 10
123.951613
 20
111.637860
 30
0.0
 10
121.710419
 20
111.637860
 30
0.0
 10
119.469202
 20
111.637860
 30
0.0
 10
117.227860
 20
111.637860
 30
0.0
 10
114.986778
 20
111.637860
 30
0.0
 10
113.496940
 20
113.571297
 30
0.0
 10
111.168925
 20
114.304881
 30
0.0
 10
108.842431
 20
113.570559
 30
0.0
 10
107.353652
 20
111.637860
 30
0.0
 10
107.015173
 20
111.637860
 30
0.0
 10
106.262513
 20
113.994494
 30
0.0
 10
105.249640
 20
116.251022
 30
0.0
 10
103.934636
 20
118.345165
 30
0.0
 10
102.297050
 20
120.197190
 30
0.0
 10
100.359028
 20
121.731724
 30
0.0
 10
98.186352
 20
122.911522
 30
0.0
 10
95.860499
 20
123.752414
 30
0.0
 10
93.449097
 20
124.306407
 30
0.0
 10
90.996832
 20
124.636222
 30
0.0
 10
88.527139
 20
124.800687
 30
0.0
 10
86.052627
 20
124.849973
 30
0.0
  0
LWPOLYLINE
  5
110
100
AcDbEntity
  8
Layer_1
 62
7
100
AcDbPolyline
 90
9
 70
1
 10
140.134561
 20
77.732025
 30
0.0
 10
138.944464
 20
74.858882
 30
0.0
 10
136.071321
 20
73.668785
 30
0.0
 10
133.198171
 20
74.858878
 30
0.0
 10
132.008071
 20
77.732025
 30
0.0
 10
133.198167
 20
80.605178
 30
0.0
 10
136.071321
 20
81.795275
 30
0.0
 10
138.944468
 20
80.605175
 30
0.0
 10
140.134561
 20
77.732025
 30
0.0
  0
LWPOLYLINE
  5
111
100
AcDbEntity
  8
Layer_1
 62
7
100
AcDbPolyline
 90
9
 70
1
 10
140.134561
 20
61.486425
 30
0.0
 10
138.944468
 20
58.613275
 30
0.0
 10
136.071321
 20
57.423175
 30
0.0
 10
133.198167
 20
58.613272
 30
0.0
 10
132.008071
 20
61.486425
 30
0.0
 10
133.198171
 20
64.359572
 30
0.0
 10
136.071321
 20
65.549665
 30
0.0
 10
138.944464
 20
64.359568
 30
0.0
 10
140.134561
 20
61.486425
 30
0.0
  0
LWPOLYLINE
  5
112
100
AcDbEntity
  8
Layer_1
 62
7
100
AcDbPolyline
 90
9
 70
1
 10
148.246271
 20
69.644965
 30
0.0
 10
147.056178
 20
66.771815
 30
0.0
 10
144.183031
 20
65.581715
 30
0.0
 10
141.309877
 20
66.771812
 30
0.0
 10
140.119781
 20
69.644965
 30
0.0
 10
141.309881
 20
72.518112
 30
0.0
 10
144.183031
 20
73.708205
 30
0.0
 10
147.056174
 20
72.518108
 30
0.0
 10
148.246271
 20
69.644965
 30
0.0
  0
LWPOLYLINE
  5
113
100
AcDbEntity
  8
Layer_1
 62
7
100
AcDbPolyline
 90
9
 70
1
 10
132.007551
 20
69.644965
 30
0.0
 10
130.817454
 20
66.771812
 30
0.0
 10
127.944301
 20
65.581715
 30
0.0
 10
125.071154
 20
66.771815
 30
0.0
 10
123.881061
 20
69.644965
 30
0.0
 10
125.071157
 20
72.518108
 30
0.0
 10
127.944301
 20
73.708205
 30
0.0
 10
130.817450
 20
72.518112
 30
0.0
 10
132.007551
 20
69.644965
 30
0.0
  0
LWPOLYLINE
  5
114
100
AcDbEntity
  8
Layer_1
 62
7
100
AcDbPolyline
 90
29
 70
1
 10
51.151398
 20
81.769917
 30
0.0
 10
50.482764
 20
81.493902
 30
0.0
 10
50.206753
 20
80.825270
 30
0.0
 10
50.206753
 20
73.695990
 30
0.0
 10
42.988589
 20
73.695990
 30
0.0
 10
42.319698
 20
73.419722
 30
0.0
 10
42.043429
 20
72.750829
 30
0.0
 10
42.043429
 20
66.514516
 30
0.0
 10
42.319698
 20
65.845623
 30
0.0
 10
42.988589
 20
65.569355
 30
0.0
 10
50.206753
 20
65.569355
 30
0.0
 10
50.206753
 20
58.393564
 30
0.0
 10
50.482764
 20
57.724672
 30
0.0
 10
51.151398
 20
57.448404
 30
0.0
 10
57.388227
 20
57.448404
 30
0.0
 10
58.056861
 20
57.724672
 30
0.0
 10
58.332872
 20
58.393564
 30
0.0
 10
58.332872
 20
65.569355
 30
0.0
 10
65.553621
 20
65.569355
 30
0.0
 10
66.222512
 20
65.845623
 30
0.0
 10
66.498781
 20
66.514516
 30
0.0
 10
66.498781
 20
72.750829
 30
0.0
 10
66.222512
 20
73.419722
 30
0.0
 10
65.553621
 20
73.695990
 30
0.0
 10
58.332872
 20
73.695990
 30
0.0
 10
58.332872
 20
80.825270
 30
0.0
 10
58.056861
 20
81.493902
 30
0.0
 10
57.388227
 20
81.769917
 30
0.0
 10
51.151398
 20
81.769917
 30
0.0
  0
LWPOLYLINE
  5
115
100
AcDbEntity
  8
Layer_1
 62
7
100
AcDbPolyline
 90
32
 70
1
 10
46.798238
 20
3.472665
 30
0.0
 10
39.381636
 20
0.868165
 30
0.0
 10
31.444136
 20
0.000005
 30
0.0
 10
23.589583
 20
1.141937
 30
0.0
 10
16.784566
 20
5.159375
 30
0.0
 10
12.604604
 20
11.594131
 30
0.0
 10
11.377144
 20
19.198835
 30
0.0
 10
12.622007
 20
26.850354
 30
0.0
 10
16.883785
 20
33.287895
 30
0.0
 10
23.910773
 20
37.303060
 30
0.0
 10
31.965035
 20
38.422465
 30
0.0
 10
39.034371
 20
37.727935
 30
0.0
 10
45.433980
 20
35.669145
 30
0.0
 10
45.433980
 20
28.004495
 30
0.0
 10
39.257613
 20
30.633795
 30
0.0
 10
33.130855
 20
31.501955
 30
0.0
 10
28.076900
 20
30.702005
 30
0.0
 10
24.325191
 20
28.302155
 30
0.0
 10
22.018355
 20
24.438825
 30
0.0
 10
21.249410
 20
19.198835
 30
0.0
 10
21.993550
 20
13.989850
 30
0.0
 10
24.225972
 20
10.120315
 30
0.0
 10
27.828853
 20
7.720465
 30
0.0
 10
32.684371
 20
6.920515
 30
0.0
 10
35.437691
 20
7.094145
 30
0.0
 10
37.744527
 20
7.689455
 30
0.0
 10
37.744527
 20
14.882815
 30
0.0
 10
31.915425
 20
14.882815
 30
0.0
 10
31.915425
 20
21.282425
 30
0.0
 10
39.356831
 20
21.282425
 30
0.0
 10
46.798238
 20
21.282425
 30
0.0
 10
46.798238
 20
12.377545
 30
0.0
  0
LWPOLYLINE
  5
116
100
AcDbEntity
  8
Layer_1
 62
7
100
AcDbPolyline
 90
16
 70
1
 10
77.655269
 20
7.466215
 30
0.0
 10
70.189058
 20
7.466215
 30
0.0
 10
62.722847
 20
7.466215
 30
0.0
 10
60.366402
 20
0.719345
 30
0.0
 10
50.766988
 20
0.719345
 30
0.0
 10
54.196293
 20
9.977847
 30
0.0
 10
57.625236
 20
19.235372
 30
0.0
 10
61.054532
 20
28.493850
 30
0.0
 10
64.483980
 20
37.752735
 30
0.0
 10
70.176656
 20
37.752735
 30
0.0
 10
75.869332
 20
37.752735
 30
0.0
 10
79.298637
 20
28.494233
 30
0.0
 10
82.727580
 20
19.236708
 30
0.0
 10
86.156876
 20
9.978230
 30
0.0
 10
89.586324
 20
0.719345
 30
0.0
 10
79.986910
 20
0.719345
 30
0.0
  0
LWPOLYLINE
  5
117
100
AcDbEntity
  8
Layer_1
 62
7
100
AcDbPolyline
 90
6
 70
1
 10
65.104097
 20
14.337115
 30
0.0
 10
70.176655
 20
14.337115
 30
0.0
 10
75.249214
 20
14.337115
 30
0.0
 10
72.719136
 20
21.704105
 30
0.0
 10
70.189058
 20
29.071095
 30
0.0
 10
67.646577
 20
21.704105
 30
0.0
  0
LWPOLYLINE
  5
118
100
AcDbEntity
  8
Layer_1
 62
7
100
AcDbPolyline
 90
33
 70
1
 10
94.472841
 20
37.752735
 30
0.0
 10
100.549991
 20
37.752735
 30
0.0
 10
106.627141
 20
37.752735
 30
0.0
 10
109.438334
 20
31.146429
 30
0.0
 10
112.249515
 20
24.540152
 30
0.0
 10
115.060731
 20
17.933795
 30
0.0
 10
117.888461
 20
24.540101
 30
0.0
 10
120.716178
 20
31.146378
 30
0.0
 10
123.543931
 20
37.752735
 30
0.0
 10
129.608681
 20
37.752735
 30
0.0
 10
135.673431
 20
37.752735
 30
0.0
 10
135.673431
 20
28.494233
 30
0.0
 10
135.673431
 20
19.236708
 30
0.0
 10
135.673431
 20
9.978230
 30
0.0
 10
135.673431
 20
0.719345
 30
0.0
 10
126.644521
 20
0.719345
 30
0.0
 10
126.644521
 20
9.748239
 30
0.0
 10
126.644521
 20
18.777091
 30
0.0
 10
126.644521
 20
27.806055
 30
0.0
 10
123.800254
 20
21.150139
 30
0.0
 10
120.956000
 20
14.494253
 30
0.0
 10
118.111711
 20
7.838285
 30
0.0
 10
112.059361
 20
7.838285
 30
0.0
 10
109.215094
 20
14.494201
 30
0.0
 10
106.370840
 20
21.150087
 30
0.0
 10
103.526551
 20
27.806055
 30
0.0
 10
103.526551
 20
18.777161
 30
0.0
 10
103.526551
 20
9.748309
 30
0.0
 10
103.526551
 20
0.719345
 30
0.0
 10
94.472841
 20
0.719345
 30
0.0
 10
94.472841
 20
9.977847
 30
0.0
 10
94.472841
 20
19.235372
 30
0.0
 10
94.472841
 20
28.493850
 30
0.0
  0
LWPOLYLINE
  5
119
100
AcDbEntity
  8
Layer_1
 62
7
100
AcDbPolyline
 90
7
 70
1
 10
158.642571
 20
21.332035
 30
0.0
 10
162.933781
 20
22.448245
 30
0.0
 10
164.248431
 20
26.119345
 30
0.0
 10
162.933781
 20
29.740825
 30
0.0
 10
158.642571
 20
30.832235
 30
0.0
 10
154.624211
 20
30.832235
 30
0.0
 10
154.624211
 20
21.332035
 30
0.0
  0
LWPOLYLINE
  5
11a
100
AcDbEntity
  8
Layer_1
 62
7
100
AcDbPolyline
 90
26
 70
1
 10
154.624211
 20
14.733985
 30
0.0
 10
154.624211
 20
7.726665
 30
0.0
 10
154.624211
 20
0.719345
 30
0.0
 10
145.074401
 20
0.719345
 30
0.0
 10
145.074401
 20
9.977847
 30
0.0
 10
145.074401
 20
19.235372
 30
0.0
 10
145.074401
 20
28.493850
 30
0.0
 10
145.074401
 20
37.752735
 30
0.0
 10
152.366981
 20
37.752735
 30
0.0
 10
159.659561
 20
37.752735
 30
0.0
 10
165.213332
 20
37.301402
 30
0.0
 10
170.375181
 20
35.297075
 30
0.0
 10
172.942468
 20
32.128278
 30
0.0
 10
173.798231
 20
27.533205
 30
0.0
 10
172.012291
 20
21.505665
 30
0.0
 10
166.679291
 20
18.033015
 30
0.0
 10
170.176751
 20
15.999025
 30
0.0
 10
173.326941
 20
11.236525
 30
0.0
 10
175.919031
 20
5.977935
 30
0.0
 10
178.511121
 20
0.719345
 30
0.0
 10
173.426161
 20
0.719345
 30
0.0
 10
168.341201
 20
0.719345
 30
0.0
 10
166.083976
 20
5.320610
 30
0.0
 10
163.826751
 20
9.921875
 30
0.0
 10
161.048621
 20
13.716995
 30
0.0
 10
157.327921
 20
14.733985
 30
0.0
  0
ENDSEC
  0
SECTION
  2
OBJECTS
  0
DICTIONARY
  5
C
330
0
100
AcDbDictionary
  3
ACAD_GROUP
350
D
  3
ACAD_MLINESTYLE
350
17
  0
DICTIONARY
  5
D
330
C
100
AcDbDictionary
  0
DICTIONARY
  5
1A
330
C
100
AcDbDictionary
  0
DICTIONARY
  5
17
330
C
100
AcDbDictionary
  3
STANDARD
350
18
  0
DICTIONARY
  5
19
330
C
100
AcDbDictionary
  0
ENDSEC
  0
EOF
